<?xml version="1.0" encoding="utf-8"?>
<!-- Generator: Adobe Illustrator 24.3.0, SVG Export Plug-In . SVG Version: 6.00 Build 0)  -->
<svg version="1.1" id="Capa_1" xmlns="http://www.w3.org/2000/svg" xmlns:xlink="http://www.w3.org/1999/xlink" x="0px" y="0px"
	 viewBox="0 0 1366 768" style="enable-background:new 0 0 1366 768;" xml:space="preserve">
<style type="text/css">
	.st0{fill:none;}
	.st1{fill:#00427E;}
	.st2{opacity:0.4;fill:#9DDCF9;}
	.st3{fill:#C6DD7F;}
	.st4{fill:#E9DDB7;}
	.st5{fill:#A6D0E4;}
	.st6{fill:url(#A_todo_ritmo);}
	.st7{fill:url(#Alyssa);}
	.st8{fill:none;stroke:#000000;stroke-miterlimit:10;}
</style>
<pattern  width="108.34" height="109.64" patternUnits="userSpaceOnUse" id="A_todo_ritmo" viewBox="47.56 -219.28 108.34 109.64" style="overflow:visible;">
	<g>
		<rect x="47.56" y="-219.28" class="st0" width="108.34" height="109.64"/>
		<g>
			<path class="st1" d="M135.04-74.95c0.02-0.12,0.12-0.21,0.25-0.21c12.91-0.13,24.75-3.27,33.97-11.51
				c-8.03,5.56-22.94,7.51-31.53,3.62c-0.11-0.05-0.17-0.17-0.14-0.29c0.03-0.12,0.13-0.2,0.25-0.2
				c10.68,0.29,19.28-3.01,25.98-8.96c-6.87-0.42-12.57-4.74-12.56-9.84c0-0.12,0.08-0.22,0.2-0.25c0.12-0.03,0.23,0.04,0.28,0.14
				c1.12,2.49,4.75,3.78,8.58,2.88c4.18-0.98,7-4.19,6.3-7.17c-0.47-2.01-2.44-3.4-4.95-3.79c-0.13-0.02-0.22-0.13-0.22-0.26
				c0-0.13,0.1-0.23,0.23-0.25c1.07-0.1,2.18-0.11,3.32,0c6.49,0.62,11.51,4.6,11.95,9.18c4.71-0.55,8.88-3.16,10.38-6.77
				c0.04-0.11,0.16-0.17,0.28-0.15c0.12,0.02,0.2,0.11,0.21,0.23c0.38,4.75-1.26,7.84-4.97,10.85c5.38-2.06,11.44-2.17,17.25,0.54
				c0.11,0.05,0.16,0.16,0.14,0.28c-0.02,0.12-0.12,0.2-0.24,0.2c-4.88,0.19-8.42,1.76-11.73,5.07c18.25-5.13,33.08,6.2,27.95,23.05
				c-0.04,0.12-0.15,0.19-0.27,0.18c-0.12-0.01-0.22-0.11-0.23-0.23c-0.92-9.71-7.7-16.12-17.86-17.08
				c5.39,2.06,11,6.98,11.56,15.53c0.01,0.12-0.07,0.23-0.19,0.26c-0.12,0.03-0.24-0.03-0.29-0.14c-2.8-6.15-8.3-9.27-14.16-9.81
				c6.33,2.58,10.4,8.6,11.57,16.42c0.02,0.12-0.05,0.24-0.17,0.28c-0.12,0.04-0.25-0.02-0.3-0.12
				c-3.87-7.58-12.16-12.79-22.45-8.81c-10.62,4.11-15.27,16.39-16.3,25.04c-0.01,0.12-0.12,0.21-0.24,0.22
				c-0.12,0.01-0.23-0.07-0.26-0.2c-3.72-15.69,3.58-31.95,16.64-38.84c-7.1,2-13.44,6.26-17.03,13.35
				c-8.29,1.02-14,3.86-16.86,9.24c-0.06,0.11-0.18,0.16-0.3,0.12c-0.12-0.03-0.19-0.14-0.18-0.27c0.18-2.11,0.94-6.33,4.07-8.27
				c-6.96,0.01-12.51-0.89-17.8-3.01C135.08-74.71,135.01-74.83,135.04-74.95z M164.52-21.47c-0.1-0.07-0.23-0.05-0.32,0.03
				c-0.09,0.08-0.1,0.21-0.05,0.31c1.62,2.8,0.14,6.81-3.05,6.81c-5.72,0-8.47-10.77-7.6-20.59c2.16,5.76,4.03,8.05,7.35,10.79
				c0.09,0.08,0.23,0.08,0.32,0c0.09-0.08,0.12-0.21,0.06-0.32c-4.86-9.08-5.9-16.07-5.9-24.09c1.46,5.96,3.2,9.32,8.13,14.38
				c0.09,0.09,0.22,0.1,0.33,0.03c0.1-0.07,0.14-0.2,0.09-0.32c-5.3-11.59-4.89-24.45-0.95-34.26c0.04-0.1,0.01-0.21-0.06-0.28
				c-0.08-0.07-0.19-0.09-0.29-0.04c-5.21,2.55-8.26,4.23-12.75,10.39c1.36,7.4,0.23,11.05-3.17,17.2
				c3.94-9.92,1.84-23.89-8.19-29.59c-0.11-0.06-0.25-0.03-0.32,0.06c-0.08,0.1-0.07,0.24,0.02,0.33
				c3.78,3.96,6.53,10.63,4.16,17.93c1.53-10.39-7.6-19.12-17.78-19.12c-9.6,0-16.15,7.51-15.61,14.94
				c0.54,7.37,5.44,10.97,9.67,12.5c0.11,0.04,0.24,0,0.3-0.1c0.06-0.1,0.05-0.23-0.03-0.32c-5.61-5.69-6.38-16.49,3.58-19.76
				c-5.86,5.06-3.69,16.83,5.69,17.72c0.12,0.01,0.23-0.06,0.26-0.17c0.04-0.11,0-0.23-0.1-0.3c-2.01-1.28-3.68-3.77-3.68-6.57
				c0-4.67,3.42-6.51,5.68-6.51c3.42,0,6.26,3.26,6.26,8.18c0,5.84-5.26,10.68-12.02,11.44c-6.63,0.73-12.78-2.15-15.75-6.46
				c-0.07-0.1-0.2-0.14-0.31-0.09s-0.17,0.18-0.14,0.29c3.02,11.7,16.8,16.88,26.89,9.51c-6.61,7.5-17.01,7.61-25.72-0.09
				c-0.09-0.08-0.23-0.08-0.32-0.01c-0.1,0.07-0.13,0.21-0.07,0.31c2.67,5.41,9.25,11.82,18.61,10.88
				c8.56-0.86,13.52-9.01,14.52-15.69c0.56,8.52-1.39,14.54-8.75,20.15c-0.1,0.07-0.13,0.21-0.07,0.32c0.05,0.11,0.18,0.16,0.3,0.13
				c6.79-1.96,12.23-5.43,15.05-12.54c0,6.16-2.14,12.37-7.53,16.51c-0.1,0.07-0.13,0.21-0.07,0.31s0.18,0.16,0.3,0.13
				c3.45-0.98,6.17-2.49,8.14-5.19c1.31,11.1,6.52,17.69,12.53,17.69c4.12,0,7.21-3.03,7.21-7.87
				C169.33-15.29,167.84-19.26,164.52-21.47z M263.75-113.09c-3.16-3.9-9.54-5.39-16.43-3.99c0.51-4.3-0.33-8.79-1.61-11.48
				c-0.05-0.11-0.17-0.17-0.29-0.14c-0.12,0.03-0.2,0.14-0.19,0.26c0.38,8.77-4.62,15.84-13.45,18.91
				c6.91-4.76,8.93-14.19,5.64-19.07c-0.07-0.1-0.2-0.14-0.31-0.09c-0.11,0.04-0.18,0.16-0.15,0.28c0.37,2.06-0.61,4.68-2.71,6.73
				c-2.91,2.81-6.85,3.45-8.81,1.43c-1.96-2.03-1.2-5.95,1.71-8.76c1.06-1.03,2.26-1.76,3.45-2.18c0.11-0.04,0.18-0.15,0.17-0.27
				c-0.01-0.12-0.11-0.21-0.23-0.22c-6.39-0.55-10.77,3.25-13.51,7.88c-2.79,4.71-7.57,8.41-13.21,7.67
				c-0.12-0.02-0.23,0.05-0.27,0.17c-0.04,0.11,0.01,0.24,0.11,0.3c2.8,1.68,5.87,2.38,9.86,1.05c-5.79,4.91-14.05,7.74-21.84,5.23
				c-0.11-0.04-0.23,0.01-0.29,0.1c-0.06,0.1-0.05,0.22,0.03,0.31c5.91,6.56,17.69,6.7,25.11,1.37c-3.04,4.32-7.07,7.48-14.29,8.48
				c-0.12,0.02-0.21,0.11-0.22,0.22c-0.01,0.12,0.05,0.23,0.16,0.27c8.29,3.08,16.6-0.04,23.44-8.21
				c-2.99,6.38-7.91,11.48-14.77,14.01c-0.12,0.04-0.18,0.16-0.16,0.28c0.02,0.12,0.12,0.21,0.24,0.21
				c3.94,0.08,7.49-0.86,12.26-3.57c-3.51,5.69-2.74,15.64,2.37,22.26c0.07,0.09,0.2,0.12,0.3,0.08c0.11-0.05,0.17-0.16,0.15-0.27
				c-1.18-7.2,1.3-15.33,5.61-19.64c-2.15,7.63-0.01,14.58,5.9,19.64c0.07,0.06,0.17,0.08,0.26,0.04c0.09-0.03,0.15-0.11,0.16-0.2
				c1.23-9.42,11.77-18.97,20.6-19.78c0.12-0.01,0.22-0.11,0.23-0.24s-0.07-0.24-0.2-0.26c-4.28-0.97-8.69-0.49-12.39,1.03
				c2.66-2.93,5.94-5.11,9.55-6.25c0.12-0.04,0.19-0.15,0.18-0.27c-0.01-0.12-0.11-0.21-0.23-0.22c-4.51-0.31-8.92,1.01-12.73,3.54
				c4.36-6.62,10.98-11.54,19.43-13.51c0.12-0.03,0.2-0.14,0.2-0.26c-0.01-0.12-0.1-0.22-0.23-0.24
				c-11.92-1.3-21.75,3.32-28.22,11.92c1.65-4.9,6.37-9.76,12.95-12.62c5.85-2.55,11.85-2.95,16.42-1.51
				c0.11,0.03,0.22-0.01,0.29-0.1C263.82-112.88,263.82-113.01,263.75-113.09z M210.84-37.52c4.81-10.49,4.46-18.69,0.59-29.05
				c-0.04-0.12-0.17-0.18-0.29-0.16c-0.12,0.03-0.21,0.14-0.2,0.26c0.62,12.62-2.83,21.65-10.3,27.81
				c8.25-9.85,4.35-29.56-8.82-29.56c-9.59,0-17.52,7.98-19.46,17.52c-0.02,0.12,0.04,0.24,0.16,0.29c0.12,0.04,0.25,0,0.31-0.11
				c2.84-4.76,7.41-7.85,12.46-7.85c8.13,0,10.54,6.47,10.54,11c0,6.19-4.93,11.34-8.71,11.34c-3.44,0-5.04-2.82-5.04-4.93
				c0-3.9,3-7.17,6.38-8.16c0.12-0.04,0.2-0.15,0.18-0.28c-0.02-0.12-0.12-0.22-0.25-0.22c-4.11-0.03-7.58,1.86-9.63,5.57
				c-0.27-2.88-0.27-4.69,0.64-7.72c0.04-0.12-0.02-0.24-0.13-0.3c-0.11-0.06-0.24-0.03-0.32,0.07c-7.36,9.39-3.84,25.63,1.98,32.36
				c-5.53-3.98-10.42-12.63-10.34-24.39c0-0.12-0.09-0.23-0.21-0.25c-0.12-0.03-0.24,0.04-0.28,0.15
				c-4.11,10.25-1.93,29.25,9.28,39.85c-2.88,0.4-5.87,0.35-9.12-0.69c-0.12-0.04-0.24,0.01-0.3,0.12
				c-0.06,0.11-0.04,0.24,0.06,0.32C174.12-1.09,179.84,0,185.29,0c-4.7-5.5-3.14-16.55,4.36-16.55c5.35,0,7.78,8.3,3.65,12.78
				c-0.08,0.09-0.09,0.21-0.03,0.31c0.06,0.1,0.19,0.14,0.3,0.1c4.78-1.65,9.95-5.79,9.95-11.02c0-5.04-4.81-9.39-11.8-9.05
				c8.82-2.51,18.05,0.27,22.88,6.25c0.07,0.09,0.21,0.12,0.31,0.07c0.11-0.05,0.16-0.18,0.13-0.29
				c-2.79-10.72-11.97-15.2-23.44-13.71c9.28-3.76,23.25-0.48,29.42,7.31c0.07,0.09,0.2,0.12,0.31,0.07
				c0.11-0.05,0.16-0.17,0.14-0.28C220.09-30.62,216.6-35.57,210.84-37.52z"/>
			<path class="st2" d="M237.23-56.81c-0.02,0.12-0.12,0.21-0.25,0.21c-12.91,0.14-24.75,3.27-33.97,11.52
				c8.03-5.56,22.94-7.51,31.53-3.62c0.11,0.05,0.17,0.17,0.14,0.29c-0.03,0.12-0.13,0.2-0.25,0.2
				c-10.68-0.29-19.28,3.01-25.98,8.96c6.87,0.42,12.57,4.74,12.56,9.85c0,0.12-0.08,0.22-0.2,0.25c-0.12,0.02-0.23-0.04-0.28-0.14
				c-1.12-2.49-4.75-3.78-8.58-2.88c-4.18,0.98-7,4.19-6.3,7.17c0.47,2.01,2.44,3.4,4.95,3.79c0.13,0.02,0.22,0.13,0.22,0.26
				c0,0.13-0.1,0.23-0.23,0.25c-1.07,0.1-2.18,0.11-3.32,0c-6.49-0.62-11.51-4.59-11.95-9.18c-4.71,0.55-8.88,3.16-10.38,6.77
				c-0.04,0.11-0.16,0.17-0.28,0.15c-0.12-0.02-0.2-0.11-0.21-0.23c-0.38-4.75,1.26-7.84,4.97-10.85
				c-5.38,2.06-11.45,2.16-17.26-0.54c-0.11-0.05-0.16-0.17-0.14-0.28c0.02-0.12,0.12-0.2,0.24-0.2c4.88-0.19,8.42-1.76,11.73-5.07
				c-18.26,5.13-33.09-6.2-27.96-23.05c0.04-0.12,0.15-0.19,0.27-0.18c0.12,0.01,0.22,0.11,0.23,0.23
				c0.92,9.71,7.7,16.12,17.86,17.08c-5.39-2.06-11-6.97-11.56-15.53c-0.01-0.12,0.07-0.23,0.19-0.26c0.12-0.03,0.24,0.03,0.29,0.14
				c2.8,6.15,8.3,9.26,14.16,9.81c-6.33-2.58-10.4-8.6-11.57-16.42c-0.02-0.12,0.05-0.24,0.17-0.28c0.12-0.04,0.25,0.02,0.3,0.13
				c3.87,7.58,12.16,12.79,22.45,8.81c10.62-4.11,15.27-16.38,16.3-25.04c0.02-0.12,0.12-0.22,0.24-0.22
				c0.12-0.01,0.23,0.08,0.26,0.2c3.72,15.69-3.58,31.95-16.64,38.84c7.1-2,13.44-6.26,17.03-13.35c8.29-1.02,14-3.86,16.86-9.24
				c0.06-0.11,0.18-0.16,0.29-0.12c0.12,0.04,0.19,0.15,0.18,0.27c-0.18,2.11-0.94,6.33-4.07,8.27c6.96-0.01,12.51,0.89,17.8,3.01
				C237.18-57.04,237.25-56.93,237.23-56.81z M207.74-110.28c0.1,0.06,0.23,0.05,0.32-0.03c0.09-0.08,0.1-0.21,0.04-0.31
				c-1.62-2.8-0.14-6.81,3.05-6.81c5.72,0,8.47,10.77,7.6,20.59c-2.16-5.75-4.03-8.05-7.35-10.79c-0.09-0.08-0.23-0.08-0.32,0
				c-0.09,0.08-0.12,0.21-0.06,0.32c4.86,9.08,5.9,16.06,5.9,24.08c-1.46-5.96-3.2-9.32-8.13-14.38c-0.09-0.09-0.22-0.1-0.32-0.03
				c-0.1,0.07-0.14,0.2-0.09,0.31c5.3,11.59,4.89,24.45,0.95,34.26c-0.04,0.1-0.01,0.21,0.06,0.28c0.08,0.07,0.19,0.09,0.29,0.04
				c5.21-2.55,8.26-4.23,12.75-10.39c-1.36-7.4-0.23-11.05,3.17-17.19c-3.94,9.92-1.84,23.89,8.19,29.59
				c0.11,0.06,0.25,0.04,0.32-0.06c0.08-0.1,0.07-0.24-0.02-0.33c-3.78-3.96-6.53-10.63-4.16-17.93
				c-1.53,10.39,7.6,19.11,17.78,19.11c9.6,0,16.15-7.51,15.61-14.94c-0.54-7.37-5.44-10.97-9.67-12.5c-0.11-0.04-0.24,0-0.3,0.1
				c-0.06,0.1-0.05,0.23,0.03,0.31c5.61,5.69,6.38,16.49-3.58,19.76c5.86-5.06,3.69-16.83-5.69-17.72
				c-0.12-0.01-0.23,0.06-0.26,0.17c-0.04,0.11,0,0.23,0.1,0.3c2.01,1.28,3.68,3.77,3.68,6.57c0,4.67-3.42,6.51-5.68,6.51
				c-3.42,0-6.26-3.26-6.26-8.18c0-5.84,5.26-10.68,12.02-11.43c6.63-0.74,12.78,2.15,15.75,6.46c0.07,0.1,0.2,0.14,0.31,0.09
				c0.11-0.05,0.17-0.17,0.14-0.29c-3.02-11.7-16.8-16.88-26.89-9.51c6.61-7.5,17.01-7.61,25.72,0.09c0.09,0.08,0.22,0.09,0.32,0.01
				c0.1-0.07,0.13-0.21,0.07-0.31c-2.67-5.41-9.25-11.82-18.61-10.88c-8.56,0.86-13.52,9.02-14.52,15.69
				c-0.56-8.52,1.39-14.54,8.75-20.14c0.1-0.07,0.13-0.21,0.07-0.32c-0.05-0.11-0.18-0.16-0.3-0.13
				c-6.79,1.96-12.23,5.42-15.05,12.54c0-6.16,2.14-12.37,7.53-16.51c0.1-0.07,0.13-0.21,0.07-0.32c-0.05-0.11-0.18-0.16-0.29-0.13
				c-3.45,0.98-6.17,2.49-8.14,5.18c-1.31-11.1-6.52-17.69-12.52-17.69c-4.12,0-7.21,3.03-7.21,7.87
				C202.93-116.47,204.42-112.5,207.74-110.28z M108.51-18.66c3.16,3.9,9.54,5.39,16.43,3.99c-0.51,4.3,0.33,8.79,1.61,11.49
				c0.05,0.11,0.17,0.17,0.29,0.14c0.12-0.03,0.2-0.14,0.19-0.26c-0.38-8.77,4.62-15.84,13.45-18.91
				c-6.91,4.76-8.93,14.19-5.64,19.06c0.07,0.1,0.2,0.14,0.31,0.09c0.11-0.04,0.18-0.16,0.15-0.28c-0.37-2.06,0.61-4.68,2.71-6.72
				c2.91-2.81,6.85-3.45,8.81-1.43c1.96,2.03,1.2,5.95-1.71,8.76c-1.06,1.03-2.26,1.76-3.45,2.19c-0.11,0.04-0.18,0.15-0.17,0.27
				c0.01,0.12,0.11,0.21,0.23,0.22c6.39,0.55,10.77-3.25,13.52-7.88c2.79-4.71,7.57-8.41,13.21-7.67c0.12,0.02,0.23-0.05,0.27-0.17
				c0.04-0.11-0.01-0.24-0.11-0.3c-2.8-1.68-5.87-2.38-9.86-1.05c5.79-4.91,14.05-7.74,21.84-5.23c0.11,0.04,0.23-0.01,0.29-0.1
				c0.06-0.1,0.05-0.22-0.03-0.31c-5.91-6.56-17.69-6.7-25.11-1.37c3.04-4.32,7.07-7.49,14.29-8.48c0.12-0.02,0.21-0.11,0.22-0.22
				c0.01-0.12-0.05-0.22-0.16-0.27c-8.29-3.08-16.6,0.04-23.45,8.22c2.99-6.38,7.91-11.49,14.77-14.01
				c0.12-0.04,0.18-0.16,0.16-0.28c-0.02-0.12-0.12-0.21-0.24-0.21c-3.94-0.08-7.49,0.86-12.27,3.57
				c3.51-5.69,2.74-15.64-2.37-22.26c-0.07-0.09-0.2-0.12-0.3-0.08c-0.11,0.05-0.17,0.16-0.15,0.28c1.18,7.2-1.3,15.33-5.61,19.64
				c2.15-7.63,0.01-14.58-5.9-19.64c-0.07-0.06-0.17-0.08-0.26-0.04c-0.09,0.03-0.15,0.11-0.16,0.2
				c-1.23,9.42-11.77,18.97-20.6,19.78c-0.12,0.01-0.22,0.11-0.23,0.24c-0.01,0.12,0.07,0.24,0.2,0.26
				c4.28,0.97,8.69,0.49,12.39-1.03c-2.66,2.93-5.94,5.11-9.55,6.24c-0.12,0.04-0.19,0.15-0.18,0.27c0.01,0.12,0.11,0.22,0.23,0.22
				c4.51,0.31,8.92-1.01,12.73-3.54c-4.36,6.62-10.98,11.54-19.43,13.51c-0.12,0.03-0.2,0.14-0.2,0.26c0.01,0.12,0.1,0.22,0.23,0.24
				c11.92,1.3,21.75-3.32,28.22-11.92c-1.65,4.9-6.37,9.76-12.95,12.62c-5.85,2.55-11.85,2.95-16.42,1.51
				c-0.11-0.03-0.22,0.01-0.29,0.1C108.44-18.87,108.44-18.75,108.51-18.66z M161.42-94.23c-4.81,10.49-4.46,18.69-0.59,29.05
				c0.04,0.12,0.17,0.19,0.29,0.16c0.12-0.03,0.21-0.14,0.2-0.26c-0.62-12.62,2.83-21.65,10.3-27.81
				c-8.25,9.85-4.35,29.56,8.82,29.56c9.59,0,17.52-7.98,19.46-17.53c0.03-0.12-0.04-0.24-0.16-0.29c-0.12-0.04-0.25,0-0.31,0.11
				c-2.84,4.76-7.41,7.85-12.46,7.85c-8.13,0-10.54-6.47-10.54-11c0-6.19,4.93-11.34,8.71-11.34c3.44,0,5.04,2.82,5.04,4.93
				c0,3.9-3,7.17-6.38,8.16c-0.12,0.04-0.2,0.15-0.18,0.28c0.02,0.12,0.12,0.22,0.25,0.22c4.11,0.03,7.58-1.85,9.63-5.57
				c0.27,2.88,0.27,4.69-0.64,7.72c-0.04,0.12,0.02,0.24,0.12,0.3c0.11,0.05,0.24,0.03,0.32-0.07c7.36-9.39,3.84-25.62-1.98-32.36
				c5.53,3.98,10.42,12.63,10.34,24.39c0,0.12,0.08,0.23,0.21,0.25c0.12,0.02,0.24-0.04,0.28-0.15c4.11-10.25,1.93-29.25-9.28-39.85
				c2.88-0.4,5.87-0.35,9.12,0.69c0.12,0.04,0.24-0.01,0.3-0.12c0.06-0.11,0.04-0.24-0.06-0.32c-4.09-3.46-9.81-4.54-15.27-4.54
				c4.7,5.5,3.14,16.55-4.35,16.55c-5.35,0-7.78-8.3-3.65-12.78c0.08-0.09,0.09-0.21,0.03-0.31c-0.06-0.1-0.19-0.14-0.3-0.1
				c-4.78,1.66-9.95,5.79-9.95,11.02c0,5.04,4.81,9.39,11.8,9.05c-8.82,2.5-18.05-0.27-22.88-6.25c-0.07-0.09-0.21-0.12-0.31-0.07
				c-0.11,0.05-0.16,0.17-0.13,0.29c2.79,10.71,11.97,15.2,23.44,13.71c-9.28,3.76-23.25,0.48-29.42-7.31
				c-0.07-0.09-0.2-0.12-0.31-0.07c-0.11,0.05-0.16,0.17-0.14,0.28C152.17-101.13,155.66-96.19,161.42-94.23z"/>
		</g>
		<g>
			<path class="st1" d="M26.7-74.95c0.02-0.12,0.12-0.21,0.25-0.21c12.91-0.13,24.75-3.27,33.97-11.51
				c-8.03,5.56-22.94,7.51-31.53,3.62c-0.11-0.05-0.17-0.17-0.14-0.29c0.03-0.12,0.13-0.2,0.25-0.2
				c10.68,0.29,19.28-3.01,25.98-8.96c-6.87-0.42-12.57-4.74-12.56-9.84c0-0.12,0.08-0.22,0.2-0.25c0.12-0.03,0.23,0.04,0.28,0.14
				c1.12,2.49,4.75,3.78,8.58,2.88c4.18-0.98,7-4.19,6.3-7.17c-0.47-2.01-2.44-3.4-4.95-3.79c-0.13-0.02-0.22-0.13-0.22-0.26
				c0-0.13,0.1-0.23,0.23-0.25c1.07-0.1,2.18-0.11,3.32,0c6.49,0.62,11.51,4.6,11.95,9.18c4.71-0.55,8.88-3.16,10.38-6.77
				c0.04-0.11,0.16-0.17,0.28-0.15c0.12,0.02,0.2,0.11,0.21,0.23c0.38,4.75-1.26,7.84-4.97,10.85c5.38-2.06,11.44-2.17,17.25,0.54
				c0.11,0.05,0.16,0.16,0.14,0.28c-0.02,0.12-0.12,0.2-0.24,0.2c-4.88,0.19-8.42,1.76-11.73,5.07c18.25-5.13,33.09,6.2,27.95,23.05
				c-0.04,0.12-0.15,0.19-0.27,0.18c-0.12-0.01-0.22-0.11-0.23-0.23c-0.92-9.71-7.7-16.12-17.86-17.08
				c5.39,2.06,11,6.98,11.56,15.53c0.01,0.12-0.07,0.23-0.19,0.26c-0.12,0.03-0.24-0.03-0.29-0.14c-2.8-6.15-8.3-9.27-14.16-9.81
				c6.33,2.58,10.4,8.6,11.57,16.42c0.02,0.12-0.05,0.24-0.17,0.28c-0.12,0.04-0.25-0.02-0.3-0.12
				c-3.87-7.58-12.16-12.79-22.45-8.81c-10.62,4.11-15.27,16.39-16.3,25.04c-0.01,0.12-0.12,0.21-0.24,0.22
				c-0.12,0.01-0.23-0.07-0.26-0.2c-3.72-15.69,3.58-31.95,16.64-38.84c-7.1,2-13.44,6.26-17.03,13.35
				c-8.29,1.02-14,3.86-16.86,9.24c-0.06,0.11-0.18,0.16-0.3,0.12c-0.12-0.03-0.19-0.14-0.18-0.27c0.18-2.11,0.94-6.33,4.07-8.27
				c-6.96,0.01-12.51-0.89-17.8-3.01C26.74-74.71,26.67-74.83,26.7-74.95z M56.18-21.47c-0.1-0.07-0.23-0.05-0.32,0.03
				c-0.09,0.08-0.1,0.21-0.05,0.31c1.62,2.8,0.14,6.81-3.05,6.81c-5.72,0-8.47-10.77-7.6-20.59c2.16,5.76,4.03,8.05,7.35,10.79
				c0.09,0.08,0.23,0.08,0.32,0c0.09-0.08,0.12-0.21,0.06-0.32c-4.86-9.08-5.9-16.07-5.9-24.09c1.46,5.96,3.2,9.32,8.13,14.38
				c0.09,0.09,0.22,0.1,0.33,0.03c0.1-0.07,0.14-0.2,0.09-0.32c-5.3-11.59-4.89-24.45-0.95-34.26c0.04-0.1,0.01-0.21-0.06-0.28
				c-0.08-0.07-0.19-0.09-0.29-0.04c-5.21,2.55-8.26,4.23-12.75,10.39c1.36,7.4,0.23,11.05-3.17,17.2
				c3.94-9.92,1.84-23.89-8.19-29.59c-0.11-0.06-0.25-0.03-0.32,0.06c-0.08,0.1-0.07,0.24,0.02,0.33
				c3.78,3.96,6.53,10.63,4.16,17.93c1.53-10.39-7.6-19.12-17.78-19.12c-9.6,0-16.15,7.51-15.61,14.94
				c0.54,7.37,5.44,10.97,9.67,12.5c0.11,0.04,0.24,0,0.3-0.1c0.06-0.1,0.05-0.23-0.03-0.32c-5.61-5.69-6.38-16.49,3.58-19.76
				c-5.86,5.06-3.69,16.83,5.69,17.72c0.12,0.01,0.23-0.06,0.26-0.17c0.04-0.11,0-0.23-0.1-0.3c-2.01-1.28-3.68-3.77-3.68-6.57
				c0-4.67,3.42-6.51,5.68-6.51c3.42,0,6.26,3.26,6.26,8.18c0,5.84-5.26,10.68-12.02,11.44c-6.63,0.73-12.78-2.15-15.75-6.46
				c-0.07-0.1-0.2-0.14-0.31-0.09c-0.11,0.05-0.17,0.18-0.14,0.29c3.02,11.7,16.8,16.88,26.89,9.51C20.28-30,9.89-29.9,1.17-37.59
				c-0.09-0.08-0.23-0.08-0.32-0.01c-0.1,0.07-0.13,0.21-0.07,0.31c2.67,5.41,9.25,11.82,18.61,10.88
				c8.56-0.86,13.52-9.01,14.52-15.69c0.56,8.52-1.39,14.54-8.75,20.15c-0.1,0.07-0.13,0.21-0.07,0.32c0.05,0.11,0.18,0.16,0.3,0.13
				c6.79-1.96,12.23-5.43,15.05-12.54c0,6.16-2.14,12.37-7.53,16.51c-0.1,0.07-0.13,0.21-0.07,0.31c0.05,0.11,0.18,0.16,0.3,0.13
				c3.45-0.98,6.17-2.49,8.14-5.19c1.31,11.1,6.52,17.69,12.53,17.69c4.12,0,7.21-3.03,7.21-7.87
				C60.99-15.29,59.5-19.26,56.18-21.47z M155.41-113.09c-3.16-3.9-9.54-5.39-16.43-3.99c0.51-4.3-0.33-8.79-1.61-11.48
				c-0.05-0.11-0.17-0.17-0.29-0.14c-0.12,0.03-0.2,0.14-0.19,0.26c0.38,8.77-4.62,15.84-13.45,18.91
				c6.91-4.76,8.93-14.19,5.64-19.07c-0.07-0.1-0.2-0.14-0.31-0.09c-0.11,0.04-0.18,0.16-0.15,0.28c0.37,2.06-0.61,4.68-2.71,6.73
				c-2.91,2.81-6.85,3.45-8.81,1.43c-1.96-2.03-1.2-5.95,1.71-8.76c1.06-1.03,2.26-1.76,3.45-2.18c0.11-0.04,0.18-0.15,0.17-0.27
				c-0.01-0.12-0.11-0.21-0.23-0.22c-6.39-0.55-10.77,3.25-13.52,7.88c-2.79,4.71-7.57,8.41-13.21,7.67
				c-0.12-0.02-0.23,0.05-0.27,0.17c-0.04,0.11,0.01,0.24,0.11,0.3c2.8,1.68,5.87,2.38,9.86,1.05c-5.79,4.91-14.05,7.74-21.84,5.23
				c-0.11-0.04-0.23,0.01-0.29,0.1c-0.06,0.1-0.05,0.22,0.03,0.31c5.91,6.56,17.69,6.7,25.11,1.37c-3.04,4.32-7.07,7.48-14.29,8.48
				c-0.12,0.02-0.21,0.11-0.22,0.22c-0.01,0.12,0.05,0.23,0.16,0.27c8.29,3.08,16.6-0.04,23.45-8.21
				c-2.99,6.38-7.91,11.48-14.77,14.01c-0.12,0.04-0.18,0.16-0.16,0.28c0.02,0.12,0.12,0.21,0.24,0.21
				c3.94,0.08,7.49-0.86,12.27-3.57c-3.51,5.69-2.74,15.64,2.37,22.26c0.07,0.09,0.2,0.12,0.3,0.08c0.11-0.05,0.17-0.16,0.15-0.27
				c-1.18-7.2,1.3-15.33,5.61-19.64c-2.15,7.63-0.01,14.58,5.9,19.64c0.07,0.06,0.17,0.08,0.26,0.04c0.09-0.03,0.15-0.11,0.16-0.2
				c1.23-9.42,11.77-18.97,20.6-19.78c0.12-0.01,0.22-0.11,0.23-0.24c0.01-0.12-0.07-0.24-0.2-0.26c-4.28-0.97-8.69-0.49-12.39,1.03
				c2.66-2.93,5.94-5.11,9.55-6.25c0.12-0.04,0.19-0.15,0.18-0.27c-0.01-0.12-0.11-0.21-0.23-0.22c-4.51-0.31-8.92,1.01-12.73,3.54
				c4.36-6.62,10.98-11.54,19.43-13.51c0.12-0.03,0.2-0.14,0.2-0.26c-0.01-0.12-0.1-0.22-0.23-0.24
				c-11.92-1.3-21.75,3.32-28.22,11.92c1.65-4.9,6.37-9.76,12.95-12.62c5.85-2.55,11.85-2.95,16.42-1.51
				c0.11,0.03,0.22-0.01,0.29-0.1C155.48-112.88,155.48-113.01,155.41-113.09z M102.5-37.52c4.81-10.49,4.46-18.69,0.59-29.05
				c-0.04-0.12-0.17-0.18-0.29-0.16c-0.12,0.03-0.21,0.14-0.2,0.26c0.62,12.62-2.83,21.65-10.3,27.81
				c8.25-9.85,4.35-29.56-8.82-29.56c-9.59,0-17.52,7.98-19.46,17.52c-0.02,0.12,0.04,0.24,0.16,0.29c0.12,0.04,0.25,0,0.31-0.11
				c2.84-4.76,7.41-7.85,12.46-7.85c8.13,0,10.54,6.47,10.54,11c0,6.19-4.93,11.34-8.71,11.34c-3.44,0-5.04-2.82-5.04-4.93
				c0-3.9,3-7.17,6.38-8.16c0.12-0.04,0.2-0.15,0.18-0.28c-0.02-0.12-0.12-0.22-0.25-0.22c-4.11-0.03-7.58,1.86-9.63,5.57
				c-0.27-2.88-0.27-4.69,0.64-7.72c0.04-0.12-0.02-0.24-0.13-0.3c-0.11-0.06-0.24-0.03-0.32,0.07c-7.36,9.39-3.84,25.63,1.98,32.36
				c-5.53-3.98-10.42-12.63-10.34-24.39c0-0.12-0.08-0.23-0.21-0.25c-0.12-0.03-0.24,0.04-0.28,0.15
				c-4.11,10.25-1.93,29.25,9.28,39.85c-2.88,0.4-5.87,0.35-9.13-0.69c-0.12-0.04-0.24,0.01-0.3,0.12
				c-0.06,0.11-0.04,0.24,0.06,0.32C65.78-1.09,71.5,0,76.95,0c-4.7-5.5-3.14-16.55,4.36-16.55c5.35,0,7.78,8.3,3.65,12.78
				c-0.08,0.09-0.09,0.21-0.03,0.31c0.06,0.1,0.19,0.14,0.3,0.1c4.78-1.65,9.95-5.79,9.95-11.02c0-5.04-4.81-9.39-11.8-9.05
				c8.82-2.51,18.05,0.27,22.88,6.25c0.07,0.09,0.21,0.12,0.31,0.07c0.11-0.05,0.16-0.18,0.13-0.29
				c-2.79-10.72-11.97-15.2-23.44-13.71c9.28-3.76,23.25-0.48,29.42,7.31c0.07,0.09,0.2,0.12,0.31,0.07
				c0.11-0.05,0.16-0.17,0.14-0.28C111.76-30.62,108.26-35.57,102.5-37.52z"/>
			<path class="st2" d="M128.89-56.81c-0.02,0.12-0.12,0.21-0.25,0.21c-12.91,0.14-24.75,3.27-33.97,11.52
				c8.03-5.56,22.94-7.51,31.53-3.62c0.11,0.05,0.17,0.17,0.14,0.29c-0.03,0.12-0.13,0.2-0.25,0.2
				c-10.68-0.29-19.28,3.01-25.98,8.96c6.87,0.42,12.57,4.74,12.56,9.85c0,0.12-0.08,0.22-0.2,0.25c-0.12,0.02-0.23-0.04-0.28-0.14
				c-1.12-2.49-4.75-3.78-8.58-2.88c-4.18,0.98-7,4.19-6.3,7.17c0.47,2.01,2.44,3.4,4.95,3.79c0.13,0.02,0.22,0.13,0.22,0.26
				c0,0.13-0.1,0.23-0.23,0.25c-1.07,0.1-2.18,0.11-3.32,0c-6.49-0.62-11.51-4.59-11.95-9.18c-4.71,0.55-8.88,3.16-10.38,6.77
				c-0.04,0.11-0.16,0.17-0.28,0.15c-0.12-0.02-0.2-0.11-0.21-0.23c-0.38-4.75,1.26-7.84,4.97-10.85
				c-5.38,2.06-11.45,2.16-17.26-0.54c-0.11-0.05-0.16-0.17-0.14-0.28c0.02-0.12,0.12-0.2,0.24-0.2c4.88-0.19,8.42-1.76,11.73-5.07
				c-18.26,5.13-33.09-6.2-27.96-23.05c0.04-0.12,0.15-0.19,0.27-0.18c0.12,0.01,0.22,0.11,0.23,0.23
				c0.92,9.71,7.7,16.12,17.86,17.08c-5.39-2.06-11-6.97-11.56-15.53c-0.01-0.12,0.07-0.23,0.19-0.26c0.12-0.03,0.24,0.03,0.29,0.14
				c2.8,6.15,8.3,9.26,14.16,9.81c-6.33-2.58-10.4-8.6-11.57-16.42c-0.02-0.12,0.05-0.24,0.17-0.28c0.12-0.04,0.25,0.02,0.3,0.13
				c3.87,7.58,12.16,12.79,22.45,8.81c10.62-4.11,15.27-16.38,16.3-25.04c0.02-0.12,0.12-0.22,0.24-0.22
				c0.12-0.01,0.23,0.08,0.26,0.2C101-69.07,93.7-52.81,80.65-45.92c7.1-2,13.44-6.26,17.03-13.35c8.29-1.02,14-3.86,16.86-9.24
				c0.06-0.11,0.18-0.16,0.29-0.12c0.12,0.04,0.19,0.15,0.18,0.27c-0.18,2.11-0.94,6.33-4.07,8.27c6.96-0.01,12.51,0.89,17.8,3.01
				C128.84-57.04,128.91-56.93,128.89-56.81z M99.4-110.28c0.1,0.06,0.23,0.05,0.32-0.03c0.09-0.08,0.1-0.21,0.04-0.31
				c-1.62-2.8-0.14-6.81,3.05-6.81c5.72,0,8.47,10.77,7.6,20.59c-2.16-5.75-4.03-8.05-7.35-10.79c-0.09-0.08-0.23-0.08-0.32,0
				c-0.09,0.08-0.12,0.21-0.06,0.32c4.86,9.08,5.9,16.06,5.9,24.08c-1.46-5.96-3.2-9.32-8.13-14.38c-0.09-0.09-0.22-0.1-0.32-0.03
				c-0.1,0.07-0.14,0.2-0.09,0.31c5.3,11.59,4.89,24.45,0.95,34.26c-0.04,0.1-0.01,0.21,0.06,0.28c0.08,0.07,0.19,0.09,0.29,0.04
				c5.21-2.55,8.26-4.23,12.75-10.39c-1.36-7.4-0.23-11.05,3.17-17.19c-3.94,9.92-1.84,23.89,8.19,29.59
				c0.11,0.06,0.25,0.04,0.32-0.06c0.08-0.1,0.07-0.24-0.02-0.33c-3.78-3.96-6.53-10.63-4.16-17.93
				c-1.53,10.39,7.6,19.11,17.78,19.11c9.6,0,16.15-7.51,15.61-14.94c-0.54-7.37-5.44-10.97-9.67-12.5c-0.11-0.04-0.24,0-0.3,0.1
				c-0.06,0.1-0.05,0.23,0.03,0.31c5.61,5.69,6.38,16.49-3.58,19.76c5.86-5.06,3.69-16.83-5.69-17.72
				c-0.12-0.01-0.23,0.06-0.26,0.17c-0.04,0.11,0,0.23,0.1,0.3c2.01,1.28,3.68,3.77,3.68,6.57c0,4.67-3.42,6.51-5.68,6.51
				c-3.42,0-6.26-3.26-6.26-8.18c0-5.84,5.26-10.68,12.02-11.43c6.63-0.74,12.78,2.15,15.75,6.46c0.07,0.1,0.2,0.14,0.31,0.09
				c0.11-0.05,0.17-0.17,0.14-0.29c-3.02-11.7-16.8-16.88-26.89-9.51c6.61-7.5,17.01-7.61,25.72,0.09c0.09,0.08,0.22,0.09,0.32,0.01
				c0.1-0.07,0.13-0.21,0.07-0.31c-2.67-5.41-9.25-11.82-18.61-10.88c-8.56,0.86-13.52,9.02-14.52,15.69
				c-0.56-8.52,1.39-14.54,8.75-20.14c0.1-0.07,0.13-0.21,0.07-0.32c-0.05-0.11-0.18-0.16-0.3-0.13
				c-6.79,1.96-12.23,5.42-15.05,12.54c0-6.16,2.14-12.37,7.53-16.51c0.1-0.07,0.13-0.21,0.07-0.32c-0.05-0.11-0.18-0.16-0.29-0.13
				c-3.45,0.98-6.17,2.49-8.14,5.18c-1.31-11.1-6.52-17.69-12.53-17.69c-4.12,0-7.21,3.03-7.21,7.87
				C94.59-116.47,96.08-112.5,99.4-110.28z M0.17-18.66c3.16,3.9,9.54,5.39,16.43,3.99c-0.51,4.3,0.33,8.79,1.61,11.49
				c0.05,0.11,0.17,0.17,0.29,0.14c0.12-0.03,0.2-0.14,0.19-0.26c-0.38-8.77,4.62-15.84,13.45-18.91
				c-6.91,4.76-8.93,14.19-5.64,19.06c0.07,0.1,0.2,0.14,0.31,0.09C26.93-3.1,27-3.22,26.97-3.34c-0.37-2.06,0.61-4.68,2.71-6.72
				c2.91-2.81,6.85-3.45,8.81-1.43c1.96,2.03,1.2,5.95-1.71,8.76c-1.06,1.03-2.26,1.76-3.45,2.19c-0.11,0.04-0.18,0.15-0.17,0.27
				c0.01,0.12,0.11,0.21,0.23,0.22c6.39,0.55,10.77-3.25,13.52-7.88c2.8-4.71,7.57-8.41,13.21-7.67c0.12,0.02,0.23-0.05,0.27-0.17
				c0.04-0.11-0.01-0.24-0.11-0.3c-2.8-1.68-5.87-2.38-9.86-1.05c5.79-4.91,14.05-7.74,21.84-5.23c0.11,0.04,0.23-0.01,0.29-0.1
				c0.06-0.1,0.05-0.22-0.03-0.31c-5.91-6.56-17.69-6.7-25.11-1.37c3.04-4.32,7.07-7.49,14.29-8.48c0.12-0.02,0.21-0.11,0.22-0.22
				c0.01-0.12-0.05-0.22-0.16-0.27c-8.29-3.08-16.6,0.04-23.45,8.22c2.99-6.38,7.91-11.49,14.77-14.01
				c0.12-0.04,0.18-0.16,0.16-0.28c-0.02-0.12-0.12-0.21-0.24-0.21c-3.94-0.08-7.49,0.86-12.27,3.57
				c3.51-5.69,2.74-15.64-2.37-22.26c-0.07-0.09-0.2-0.12-0.3-0.08c-0.11,0.05-0.17,0.16-0.15,0.28c1.18,7.2-1.3,15.33-5.61,19.64
				c2.15-7.63,0.01-14.58-5.9-19.64c-0.07-0.06-0.17-0.08-0.26-0.04c-0.09,0.03-0.15,0.11-0.16,0.2
				c-1.23,9.42-11.77,18.97-20.6,19.78c-0.12,0.01-0.22,0.11-0.23,0.24c-0.01,0.12,0.07,0.24,0.2,0.26
				c4.28,0.97,8.69,0.49,12.39-1.03c-2.66,2.93-5.94,5.11-9.55,6.24c-0.12,0.04-0.19,0.15-0.18,0.27c0.01,0.12,0.11,0.22,0.23,0.22
				c4.51,0.31,8.92-1.01,12.73-3.54c-4.36,6.62-10.98,11.54-19.43,13.51c-0.12,0.03-0.2,0.14-0.2,0.26c0.01,0.12,0.1,0.22,0.23,0.24
				c11.92,1.3,21.75-3.32,28.22-11.92c-1.65,4.9-6.37,9.76-12.95,12.62c-5.85,2.55-11.85,2.95-16.42,1.51
				c-0.11-0.03-0.22,0.01-0.29,0.1C0.1-18.87,0.1-18.75,0.17-18.66z M53.08-94.23c-4.81,10.49-4.46,18.69-0.59,29.05
				c0.04,0.12,0.17,0.19,0.29,0.16c0.12-0.03,0.21-0.14,0.2-0.26c-0.62-12.62,2.83-21.65,10.3-27.81
				c-8.25,9.85-4.35,29.56,8.82,29.56c9.59,0,17.52-7.98,19.46-17.53c0.03-0.12-0.04-0.24-0.16-0.29c-0.12-0.04-0.25,0-0.31,0.11
				c-2.84,4.76-7.41,7.85-12.46,7.85c-8.13,0-10.54-6.47-10.54-11c0-6.19,4.93-11.34,8.71-11.34c3.44,0,5.04,2.82,5.04,4.93
				c0,3.9-3,7.17-6.38,8.16c-0.12,0.04-0.2,0.15-0.18,0.28c0.02,0.12,0.12,0.22,0.25,0.22c4.11,0.03,7.58-1.85,9.63-5.57
				c0.27,2.88,0.27,4.69-0.64,7.72c-0.04,0.12,0.02,0.24,0.12,0.3c0.11,0.05,0.24,0.03,0.32-0.07c7.36-9.39,3.84-25.62-1.98-32.36
				c5.53,3.98,10.42,12.63,10.34,24.39c0,0.12,0.08,0.23,0.21,0.25c0.12,0.02,0.24-0.04,0.28-0.15c4.11-10.25,1.93-29.25-9.28-39.85
				c2.88-0.4,5.87-0.35,9.12,0.69c0.12,0.04,0.24-0.01,0.3-0.12c0.06-0.11,0.04-0.24-0.06-0.32c-4.09-3.46-9.81-4.54-15.27-4.54
				c4.7,5.5,3.14,16.55-4.35,16.55c-5.35,0-7.78-8.3-3.65-12.78c0.08-0.09,0.09-0.21,0.03-0.31c-0.06-0.1-0.19-0.14-0.3-0.1
				c-4.78,1.66-9.95,5.79-9.95,11.02c0,5.04,4.81,9.39,11.8,9.05c-8.82,2.5-18.05-0.27-22.88-6.25c-0.07-0.09-0.21-0.12-0.31-0.07
				c-0.11,0.05-0.16,0.17-0.13,0.29c2.79,10.71,11.97,15.2,23.44,13.71c-9.28,3.76-23.25,0.48-29.42-7.31
				c-0.07-0.09-0.2-0.12-0.31-0.07c-0.11,0.05-0.16,0.17-0.14,0.28C43.83-101.13,47.32-96.19,53.08-94.23z"/>
		</g>
		<g>
			<path class="st1" d="M135.04-184.59c0.02-0.12,0.12-0.21,0.25-0.21c12.91-0.13,24.75-3.27,33.97-11.51
				c-8.03,5.56-22.94,7.51-31.53,3.62c-0.11-0.05-0.17-0.17-0.14-0.29c0.03-0.12,0.13-0.2,0.25-0.2
				c10.68,0.29,19.28-3.01,25.98-8.96c-6.87-0.42-12.57-4.74-12.56-9.84c0-0.12,0.08-0.22,0.2-0.25c0.12-0.03,0.23,0.04,0.28,0.14
				c1.12,2.49,4.75,3.78,8.58,2.88c4.18-0.98,7-4.19,6.3-7.17c-0.47-2.01-2.44-3.4-4.95-3.79c-0.13-0.02-0.22-0.13-0.22-0.26
				c0-0.13,0.1-0.23,0.23-0.25c1.07-0.1,2.18-0.11,3.32,0c6.49,0.62,11.51,4.6,11.95,9.18c4.71-0.55,8.88-3.16,10.38-6.77
				c0.04-0.11,0.16-0.17,0.28-0.15c0.12,0.02,0.2,0.11,0.21,0.23c0.38,4.75-1.26,7.84-4.97,10.85c5.38-2.06,11.44-2.17,17.25,0.54
				c0.11,0.05,0.16,0.16,0.14,0.28c-0.02,0.12-0.12,0.2-0.24,0.2c-4.88,0.19-8.42,1.76-11.73,5.07c18.25-5.13,33.08,6.2,27.95,23.05
				c-0.04,0.12-0.15,0.19-0.27,0.18c-0.12-0.01-0.22-0.11-0.23-0.23c-0.92-9.71-7.7-16.12-17.86-17.08
				c5.39,2.06,11,6.98,11.56,15.53c0.01,0.12-0.07,0.23-0.19,0.26c-0.12,0.03-0.24-0.03-0.29-0.14c-2.8-6.15-8.3-9.27-14.16-9.81
				c6.33,2.58,10.4,8.6,11.57,16.42c0.02,0.12-0.05,0.24-0.17,0.28c-0.12,0.04-0.25-0.02-0.3-0.12
				c-3.87-7.58-12.16-12.79-22.45-8.81c-10.62,4.11-15.27,16.39-16.3,25.04c-0.01,0.12-0.12,0.21-0.24,0.22
				c-0.12,0.01-0.23-0.07-0.26-0.2c-3.72-15.69,3.58-31.95,16.64-38.84c-7.1,2-13.44,6.26-17.03,13.35
				c-8.29,1.02-14,3.86-16.86,9.24c-0.06,0.11-0.18,0.16-0.3,0.12c-0.12-0.03-0.19-0.14-0.18-0.27c0.18-2.11,0.94-6.33,4.07-8.27
				c-6.96,0.01-12.51-0.89-17.8-3.01C135.08-184.35,135.01-184.47,135.04-184.59z M164.52-131.12c-0.1-0.07-0.23-0.05-0.32,0.03
				c-0.09,0.08-0.1,0.21-0.05,0.31c1.62,2.8,0.14,6.81-3.05,6.81c-5.72,0-8.47-10.77-7.6-20.59c2.16,5.76,4.03,8.05,7.35,10.79
				c0.09,0.08,0.23,0.08,0.32,0c0.09-0.08,0.12-0.21,0.06-0.32c-4.86-9.08-5.9-16.07-5.9-24.09c1.46,5.96,3.2,9.32,8.13,14.38
				c0.09,0.09,0.22,0.1,0.33,0.03c0.1-0.07,0.14-0.2,0.09-0.32c-5.3-11.59-4.89-24.45-0.95-34.26c0.04-0.1,0.01-0.21-0.06-0.28
				c-0.08-0.07-0.19-0.09-0.29-0.04c-5.21,2.55-8.26,4.23-12.75,10.39c1.36,7.4,0.23,11.05-3.17,17.2
				c3.94-9.92,1.84-23.89-8.19-29.59c-0.11-0.06-0.25-0.03-0.32,0.06c-0.08,0.1-0.07,0.24,0.02,0.33
				c3.78,3.96,6.53,10.63,4.16,17.93c1.53-10.39-7.6-19.12-17.78-19.12c-9.6,0-16.15,7.51-15.61,14.94
				c0.54,7.37,5.44,10.97,9.67,12.5c0.11,0.04,0.24,0,0.3-0.1c0.06-0.1,0.05-0.23-0.03-0.32c-5.61-5.69-6.38-16.49,3.58-19.76
				c-5.86,5.06-3.69,16.83,5.69,17.72c0.12,0.01,0.23-0.06,0.26-0.17c0.04-0.11,0-0.23-0.1-0.3c-2.01-1.28-3.68-3.77-3.68-6.57
				c0-4.67,3.42-6.51,5.68-6.51c3.42,0,6.26,3.26,6.26,8.18c0,5.84-5.26,10.68-12.02,11.44c-6.63,0.73-12.78-2.15-15.75-6.46
				c-0.07-0.1-0.2-0.14-0.31-0.09c-0.11,0.05-0.17,0.18-0.14,0.29c3.02,11.7,16.8,16.88,26.89,9.51c-6.61,7.5-17.01,7.61-25.72-0.09
				c-0.09-0.08-0.23-0.08-0.32-0.01c-0.1,0.07-0.13,0.21-0.07,0.31c2.67,5.41,9.25,11.82,18.61,10.88
				c8.56-0.86,13.52-9.01,14.52-15.69c0.56,8.52-1.39,14.54-8.75,20.15c-0.1,0.07-0.13,0.21-0.07,0.32c0.05,0.11,0.18,0.16,0.3,0.13
				c6.79-1.96,12.23-5.43,15.05-12.54c0,6.16-2.14,12.37-7.53,16.51c-0.1,0.07-0.13,0.21-0.07,0.31s0.18,0.16,0.3,0.13
				c3.45-0.98,6.17-2.49,8.14-5.19c1.31,11.1,6.52,17.69,12.53,17.69c4.12,0,7.21-3.03,7.21-7.87
				C169.33-124.93,167.84-128.9,164.52-131.12z M263.75-222.74c-3.16-3.9-9.54-5.39-16.43-3.99c0.51-4.3-0.33-8.79-1.61-11.48
				c-0.05-0.11-0.17-0.17-0.29-0.14c-0.12,0.03-0.2,0.14-0.19,0.26c0.38,8.77-4.62,15.84-13.45,18.91
				c6.91-4.76,8.93-14.19,5.64-19.07c-0.07-0.1-0.2-0.14-0.31-0.09c-0.11,0.04-0.18,0.16-0.15,0.28c0.37,2.06-0.61,4.68-2.71,6.73
				c-2.91,2.81-6.85,3.45-8.81,1.43c-1.96-2.03-1.2-5.95,1.71-8.76c1.06-1.03,2.26-1.76,3.45-2.18c0.11-0.04,0.18-0.15,0.17-0.27
				c-0.01-0.12-0.11-0.21-0.23-0.22c-6.39-0.55-10.77,3.25-13.51,7.88c-2.79,4.71-7.57,8.41-13.21,7.67
				c-0.12-0.02-0.23,0.05-0.27,0.17c-0.04,0.11,0.01,0.24,0.11,0.3c2.8,1.68,5.87,2.38,9.86,1.05c-5.79,4.91-14.05,7.74-21.84,5.23
				c-0.11-0.04-0.23,0.01-0.29,0.1c-0.06,0.1-0.05,0.22,0.03,0.31c5.91,6.56,17.69,6.7,25.11,1.37c-3.04,4.32-7.07,7.48-14.29,8.48
				c-0.12,0.02-0.21,0.11-0.22,0.22c-0.01,0.12,0.05,0.23,0.16,0.27c8.29,3.08,16.6-0.04,23.44-8.21
				c-2.99,6.38-7.91,11.48-14.77,14.01c-0.12,0.04-0.18,0.16-0.16,0.28c0.02,0.12,0.12,0.21,0.24,0.21
				c3.94,0.08,7.49-0.86,12.26-3.57c-3.51,5.69-2.74,15.64,2.37,22.26c0.07,0.09,0.2,0.12,0.3,0.08c0.11-0.05,0.17-0.16,0.15-0.27
				c-1.18-7.2,1.3-15.33,5.61-19.64c-2.15,7.63-0.01,14.58,5.9,19.64c0.07,0.06,0.17,0.08,0.26,0.04c0.09-0.03,0.15-0.11,0.16-0.2
				c1.23-9.42,11.77-18.97,20.6-19.78c0.12-0.01,0.22-0.11,0.23-0.24c0.01-0.12-0.07-0.24-0.2-0.26c-4.28-0.97-8.69-0.49-12.39,1.03
				c2.66-2.93,5.94-5.11,9.55-6.25c0.12-0.04,0.19-0.15,0.18-0.27c-0.01-0.12-0.11-0.21-0.23-0.22c-4.51-0.31-8.92,1.01-12.73,3.54
				c4.36-6.62,10.98-11.54,19.43-13.51c0.12-0.03,0.2-0.14,0.2-0.26c-0.01-0.12-0.1-0.22-0.23-0.24
				c-11.92-1.3-21.75,3.32-28.22,11.92c1.65-4.9,6.37-9.76,12.95-12.62c5.85-2.54,11.85-2.95,16.42-1.51
				c0.11,0.03,0.22-0.01,0.29-0.1C263.82-222.52,263.82-222.65,263.75-222.74z M210.84-147.16c4.81-10.49,4.46-18.69,0.59-29.05
				c-0.04-0.12-0.17-0.18-0.29-0.16c-0.12,0.03-0.21,0.14-0.2,0.26c0.62,12.62-2.83,21.65-10.3,27.81
				c8.25-9.85,4.35-29.56-8.82-29.56c-9.59,0-17.52,7.98-19.46,17.52c-0.02,0.12,0.04,0.24,0.16,0.29c0.12,0.04,0.25,0,0.31-0.11
				c2.84-4.76,7.41-7.85,12.46-7.85c8.13,0,10.54,6.47,10.54,11c0,6.19-4.93,11.34-8.71,11.34c-3.44,0-5.04-2.82-5.04-4.93
				c0-3.9,3-7.17,6.38-8.16c0.12-0.04,0.2-0.15,0.18-0.28c-0.02-0.12-0.12-0.22-0.25-0.22c-4.11-0.03-7.58,1.86-9.63,5.57
				c-0.27-2.88-0.27-4.69,0.64-7.72c0.04-0.12-0.02-0.24-0.13-0.3c-0.11-0.06-0.24-0.03-0.32,0.07c-7.36,9.39-3.84,25.62,1.98,32.36
				c-5.53-3.98-10.42-12.63-10.34-24.39c0-0.12-0.09-0.23-0.21-0.25c-0.12-0.03-0.24,0.04-0.28,0.15
				c-4.11,10.25-1.93,29.25,9.28,39.85c-2.88,0.4-5.87,0.35-9.12-0.69c-0.12-0.04-0.24,0.01-0.3,0.12
				c-0.06,0.11-0.04,0.24,0.06,0.32c4.09,3.46,9.81,4.54,15.27,4.54c-4.7-5.5-3.14-16.55,4.36-16.55c5.35,0,7.78,8.3,3.65,12.78
				c-0.08,0.09-0.09,0.21-0.03,0.31c0.06,0.1,0.19,0.14,0.3,0.1c4.78-1.65,9.95-5.79,9.95-11.02c0-5.04-4.81-9.39-11.8-9.05
				c8.82-2.51,18.05,0.27,22.88,6.25c0.07,0.09,0.21,0.12,0.31,0.07c0.11-0.05,0.16-0.18,0.13-0.29
				c-2.79-10.72-11.97-15.2-23.44-13.71c9.28-3.76,23.25-0.48,29.42,7.31c0.07,0.09,0.2,0.12,0.31,0.07
				c0.11-0.05,0.16-0.17,0.14-0.28C220.09-140.26,216.6-145.21,210.84-147.16z"/>
			<path class="st2" d="M237.23-166.45c-0.02,0.12-0.12,0.21-0.25,0.21c-12.91,0.14-24.75,3.27-33.97,11.52
				c8.03-5.56,22.94-7.51,31.53-3.62c0.11,0.05,0.17,0.17,0.14,0.29c-0.03,0.12-0.13,0.2-0.25,0.2
				c-10.68-0.29-19.28,3.01-25.98,8.96c6.87,0.42,12.57,4.74,12.56,9.85c0,0.12-0.08,0.22-0.2,0.25c-0.12,0.02-0.23-0.04-0.28-0.14
				c-1.12-2.49-4.75-3.78-8.58-2.88c-4.18,0.98-7,4.19-6.3,7.17c0.47,2.01,2.44,3.4,4.95,3.79c0.13,0.02,0.22,0.13,0.22,0.26
				c0,0.13-0.1,0.23-0.23,0.25c-1.07,0.1-2.18,0.11-3.32,0c-6.49-0.62-11.51-4.59-11.95-9.18c-4.71,0.55-8.88,3.16-10.38,6.77
				c-0.04,0.11-0.16,0.17-0.28,0.15c-0.12-0.02-0.2-0.11-0.21-0.23c-0.38-4.75,1.26-7.84,4.97-10.85
				c-5.38,2.06-11.45,2.16-17.26-0.54c-0.11-0.05-0.16-0.17-0.14-0.28c0.02-0.12,0.12-0.2,0.24-0.2c4.88-0.19,8.42-1.76,11.73-5.07
				c-18.26,5.13-33.09-6.2-27.96-23.05c0.04-0.12,0.15-0.19,0.27-0.18c0.12,0.01,0.22,0.11,0.23,0.23
				c0.92,9.71,7.7,16.12,17.86,17.08c-5.39-2.06-11-6.97-11.56-15.53c-0.01-0.12,0.07-0.23,0.19-0.26c0.12-0.03,0.24,0.03,0.29,0.14
				c2.8,6.15,8.3,9.26,14.16,9.81c-6.33-2.58-10.4-8.6-11.57-16.42c-0.02-0.12,0.05-0.24,0.17-0.28c0.12-0.04,0.25,0.02,0.3,0.13
				c3.87,7.58,12.16,12.79,22.45,8.81c10.62-4.11,15.27-16.38,16.3-25.04c0.02-0.12,0.12-0.22,0.24-0.22
				c0.12-0.01,0.23,0.08,0.26,0.2c3.72,15.69-3.58,31.95-16.64,38.84c7.1-2,13.44-6.26,17.03-13.35c8.29-1.02,14-3.86,16.86-9.24
				c0.06-0.11,0.18-0.16,0.29-0.12c0.12,0.04,0.19,0.15,0.18,0.27c-0.18,2.11-0.94,6.33-4.07,8.27c6.96-0.01,12.51,0.89,17.8,3.01
				C237.18-166.69,237.25-166.57,237.23-166.45z M207.74-219.92c0.1,0.06,0.23,0.05,0.32-0.03c0.09-0.08,0.1-0.21,0.04-0.31
				c-1.62-2.8-0.14-6.81,3.05-6.81c5.72,0,8.47,10.77,7.6,20.59c-2.16-5.75-4.03-8.05-7.35-10.79c-0.09-0.08-0.23-0.08-0.32,0
				c-0.09,0.08-0.12,0.21-0.06,0.32c4.86,9.08,5.9,16.06,5.9,24.08c-1.46-5.96-3.2-9.32-8.13-14.38c-0.09-0.09-0.22-0.1-0.32-0.03
				c-0.1,0.07-0.14,0.2-0.09,0.31c5.3,11.59,4.89,24.45,0.95,34.26c-0.04,0.1-0.01,0.21,0.06,0.28c0.08,0.07,0.19,0.09,0.29,0.04
				c5.21-2.55,8.26-4.23,12.75-10.39c-1.36-7.4-0.23-11.05,3.17-17.19c-3.94,9.92-1.84,23.89,8.19,29.59
				c0.11,0.06,0.25,0.04,0.32-0.06c0.08-0.1,0.07-0.24-0.02-0.33c-3.78-3.96-6.53-10.63-4.16-17.93
				c-1.53,10.39,7.6,19.11,17.78,19.11c9.6,0,16.15-7.51,15.61-14.94c-0.54-7.37-5.44-10.97-9.67-12.5c-0.11-0.04-0.24,0-0.3,0.1
				c-0.06,0.1-0.05,0.23,0.03,0.31c5.61,5.69,6.38,16.49-3.58,19.76c5.86-5.06,3.69-16.83-5.69-17.72
				c-0.12-0.01-0.23,0.06-0.26,0.17c-0.04,0.11,0,0.23,0.1,0.29c2.01,1.28,3.68,3.77,3.68,6.57c0,4.67-3.42,6.51-5.68,6.51
				c-3.42,0-6.26-3.26-6.26-8.18c0-5.84,5.26-10.68,12.02-11.43c6.63-0.74,12.78,2.15,15.75,6.46c0.07,0.1,0.2,0.14,0.31,0.09
				c0.11-0.05,0.17-0.17,0.14-0.29c-3.02-11.7-16.8-16.88-26.89-9.51c6.61-7.5,17.01-7.61,25.72,0.09c0.09,0.08,0.22,0.09,0.32,0.01
				c0.1-0.07,0.13-0.21,0.07-0.31c-2.67-5.41-9.25-11.82-18.61-10.88c-8.56,0.86-13.52,9.02-14.52,15.69
				c-0.56-8.52,1.39-14.54,8.75-20.14c0.1-0.07,0.13-0.21,0.07-0.32s-0.18-0.16-0.3-0.13c-6.79,1.96-12.23,5.42-15.05,12.54
				c0-6.16,2.14-12.37,7.53-16.51c0.1-0.07,0.13-0.21,0.07-0.32c-0.05-0.11-0.18-0.16-0.29-0.13c-3.45,0.98-6.17,2.49-8.14,5.18
				c-1.31-11.1-6.52-17.69-12.52-17.69c-4.12,0-7.21,3.03-7.21,7.87C202.93-226.11,204.42-222.14,207.74-219.92z M108.51-128.3
				c3.16,3.9,9.54,5.39,16.43,3.99c-0.51,4.3,0.33,8.79,1.61,11.49c0.05,0.11,0.17,0.17,0.29,0.14c0.12-0.03,0.2-0.14,0.19-0.26
				c-0.38-8.77,4.62-15.84,13.45-18.91c-6.91,4.76-8.93,14.19-5.64,19.06c0.07,0.1,0.2,0.14,0.31,0.09
				c0.11-0.04,0.18-0.16,0.15-0.28c-0.37-2.06,0.61-4.68,2.71-6.72c2.91-2.81,6.85-3.45,8.81-1.43c1.96,2.03,1.2,5.95-1.71,8.76
				c-1.06,1.03-2.26,1.76-3.45,2.19c-0.11,0.04-0.18,0.15-0.17,0.27c0.01,0.12,0.11,0.21,0.23,0.22c6.39,0.55,10.77-3.25,13.52-7.88
				c2.79-4.71,7.57-8.41,13.21-7.67c0.12,0.02,0.23-0.05,0.27-0.17c0.04-0.11-0.01-0.24-0.11-0.3c-2.8-1.68-5.87-2.38-9.86-1.05
				c5.79-4.91,14.05-7.74,21.84-5.23c0.11,0.04,0.23-0.01,0.29-0.1c0.06-0.1,0.05-0.22-0.03-0.31c-5.91-6.56-17.69-6.7-25.11-1.37
				c3.04-4.32,7.07-7.49,14.29-8.48c0.12-0.02,0.21-0.11,0.22-0.22c0.01-0.12-0.05-0.22-0.16-0.27c-8.29-3.08-16.6,0.04-23.45,8.22
				c2.99-6.38,7.91-11.49,14.77-14.01c0.12-0.04,0.18-0.16,0.16-0.28c-0.02-0.12-0.12-0.21-0.24-0.21
				c-3.94-0.08-7.49,0.86-12.27,3.57c3.51-5.69,2.74-15.64-2.37-22.26c-0.07-0.09-0.2-0.12-0.3-0.08c-0.11,0.05-0.17,0.16-0.15,0.28
				c1.18,7.2-1.3,15.33-5.61,19.64c2.15-7.63,0.01-14.58-5.9-19.64c-0.07-0.06-0.17-0.08-0.26-0.04c-0.09,0.03-0.15,0.11-0.16,0.2
				c-1.23,9.42-11.77,18.97-20.6,19.78c-0.12,0.01-0.22,0.11-0.23,0.24c-0.01,0.12,0.07,0.24,0.2,0.26
				c4.28,0.97,8.69,0.49,12.39-1.03c-2.66,2.93-5.94,5.11-9.55,6.24c-0.12,0.04-0.19,0.15-0.18,0.27c0.01,0.12,0.11,0.22,0.23,0.22
				c4.51,0.31,8.92-1.01,12.73-3.54c-4.36,6.62-10.98,11.54-19.43,13.51c-0.12,0.03-0.2,0.14-0.2,0.26c0.01,0.12,0.1,0.22,0.23,0.24
				c11.92,1.3,21.75-3.32,28.22-11.92c-1.65,4.9-6.37,9.76-12.95,12.62c-5.85,2.54-11.85,2.95-16.42,1.51
				c-0.11-0.03-0.22,0.01-0.29,0.1C108.44-128.51,108.44-128.39,108.51-128.3z M161.42-203.87c-4.81,10.49-4.46,18.69-0.59,29.05
				c0.04,0.12,0.17,0.19,0.29,0.16c0.12-0.03,0.21-0.14,0.2-0.26c-0.62-12.62,2.83-21.65,10.3-27.81
				c-8.25,9.85-4.35,29.56,8.82,29.56c9.59,0,17.52-7.98,19.46-17.53c0.03-0.12-0.04-0.24-0.16-0.29c-0.12-0.04-0.25,0-0.31,0.11
				c-2.84,4.76-7.41,7.85-12.46,7.85c-8.13,0-10.54-6.47-10.54-11c0-6.19,4.93-11.34,8.71-11.34c3.44,0,5.04,2.82,5.04,4.93
				c0,3.9-3,7.17-6.38,8.16c-0.12,0.04-0.2,0.15-0.18,0.28c0.02,0.12,0.12,0.22,0.25,0.22c4.11,0.03,7.58-1.85,9.63-5.57
				c0.27,2.88,0.27,4.69-0.64,7.72c-0.04,0.12,0.02,0.24,0.12,0.3c0.11,0.05,0.24,0.03,0.32-0.07c7.36-9.39,3.84-25.62-1.98-32.36
				c5.53,3.98,10.42,12.63,10.34,24.39c0,0.12,0.08,0.23,0.21,0.25c0.12,0.02,0.24-0.04,0.28-0.15c4.11-10.25,1.93-29.25-9.28-39.85
				c2.88-0.4,5.87-0.35,9.12,0.69c0.12,0.04,0.24-0.01,0.3-0.12c0.06-0.11,0.04-0.24-0.06-0.32c-4.09-3.46-9.81-4.54-15.27-4.54
				c4.7,5.5,3.14,16.55-4.35,16.55c-5.35,0-7.78-8.3-3.65-12.78c0.08-0.09,0.09-0.21,0.03-0.31c-0.06-0.1-0.19-0.14-0.3-0.1
				c-4.78,1.66-9.95,5.79-9.95,11.02c0,5.04,4.81,9.39,11.8,9.05c-8.82,2.5-18.05-0.27-22.88-6.25c-0.07-0.09-0.21-0.12-0.31-0.07
				c-0.11,0.05-0.16,0.17-0.13,0.29c2.79,10.71,11.97,15.2,23.44,13.71c-9.28,3.76-23.25,0.48-29.42-7.31
				c-0.07-0.09-0.2-0.12-0.31-0.07c-0.11,0.05-0.16,0.17-0.14,0.28C152.17-210.77,155.66-205.83,161.42-203.87z"/>
		</g>
		<g>
			<path class="st1" d="M26.7-184.59c0.02-0.12,0.12-0.21,0.25-0.21c12.91-0.13,24.75-3.27,33.97-11.51
				c-8.03,5.56-22.94,7.51-31.53,3.62c-0.11-0.05-0.17-0.17-0.14-0.29c0.03-0.12,0.13-0.2,0.25-0.2
				c10.68,0.29,19.28-3.01,25.98-8.96c-6.87-0.42-12.57-4.74-12.56-9.84c0-0.12,0.08-0.22,0.2-0.25c0.12-0.03,0.23,0.04,0.28,0.14
				c1.12,2.49,4.75,3.78,8.58,2.88c4.18-0.98,7-4.19,6.3-7.17c-0.47-2.01-2.44-3.4-4.95-3.79c-0.13-0.02-0.22-0.13-0.22-0.26
				c0-0.13,0.1-0.23,0.23-0.25c1.07-0.1,2.18-0.11,3.32,0c6.49,0.62,11.51,4.6,11.95,9.18c4.71-0.55,8.88-3.16,10.38-6.77
				c0.04-0.11,0.16-0.17,0.28-0.15c0.12,0.02,0.2,0.11,0.21,0.23c0.38,4.75-1.26,7.84-4.97,10.85c5.38-2.06,11.44-2.17,17.25,0.54
				c0.11,0.05,0.16,0.16,0.14,0.28c-0.02,0.12-0.12,0.2-0.24,0.2c-4.88,0.19-8.42,1.76-11.73,5.07c18.25-5.13,33.09,6.2,27.95,23.05
				c-0.04,0.12-0.15,0.19-0.27,0.18c-0.12-0.01-0.22-0.11-0.23-0.23c-0.92-9.71-7.7-16.12-17.86-17.08
				c5.39,2.06,11,6.98,11.56,15.53c0.01,0.12-0.07,0.23-0.19,0.26c-0.12,0.03-0.24-0.03-0.29-0.14c-2.8-6.15-8.3-9.27-14.16-9.81
				c6.33,2.58,10.4,8.6,11.57,16.42c0.02,0.12-0.05,0.24-0.17,0.28c-0.12,0.04-0.25-0.02-0.3-0.12
				c-3.87-7.58-12.16-12.79-22.45-8.81c-10.62,4.11-15.27,16.39-16.3,25.04c-0.01,0.12-0.12,0.21-0.24,0.22
				c-0.12,0.01-0.23-0.07-0.26-0.2c-3.72-15.69,3.58-31.95,16.64-38.84c-7.1,2-13.44,6.26-17.03,13.35
				c-8.29,1.02-14,3.86-16.86,9.24c-0.06,0.11-0.18,0.16-0.3,0.12c-0.12-0.03-0.19-0.14-0.18-0.27c0.18-2.11,0.94-6.33,4.07-8.27
				c-6.96,0.01-12.51-0.89-17.8-3.01C26.74-184.35,26.67-184.47,26.7-184.59z M56.18-131.12c-0.1-0.07-0.23-0.05-0.32,0.03
				c-0.09,0.08-0.1,0.21-0.05,0.31c1.62,2.8,0.14,6.81-3.05,6.81c-5.72,0-8.47-10.77-7.6-20.59c2.16,5.76,4.03,8.05,7.35,10.79
				c0.09,0.08,0.23,0.08,0.32,0c0.09-0.08,0.12-0.21,0.06-0.32c-4.86-9.08-5.9-16.07-5.9-24.09c1.46,5.96,3.2,9.32,8.13,14.38
				c0.09,0.09,0.22,0.1,0.33,0.03c0.1-0.07,0.14-0.2,0.09-0.32c-5.3-11.59-4.89-24.45-0.95-34.26c0.04-0.1,0.01-0.21-0.06-0.28
				c-0.08-0.07-0.19-0.09-0.29-0.04c-5.21,2.55-8.26,4.23-12.75,10.39c1.36,7.4,0.23,11.05-3.17,17.2
				c3.94-9.92,1.84-23.89-8.19-29.59c-0.11-0.06-0.25-0.03-0.32,0.06c-0.08,0.1-0.07,0.24,0.02,0.33
				c3.78,3.96,6.53,10.63,4.16,17.93c1.53-10.39-7.6-19.12-17.78-19.12c-9.6,0-16.15,7.51-15.61,14.94
				c0.54,7.37,5.44,10.97,9.67,12.5c0.11,0.04,0.24,0,0.3-0.1c0.06-0.1,0.05-0.23-0.03-0.32c-5.61-5.69-6.38-16.49,3.58-19.76
				c-5.86,5.06-3.69,16.83,5.69,17.72c0.12,0.01,0.23-0.06,0.26-0.17c0.04-0.11,0-0.23-0.1-0.3c-2.01-1.28-3.68-3.77-3.68-6.57
				c0-4.67,3.42-6.51,5.68-6.51c3.42,0,6.26,3.26,6.26,8.18c0,5.84-5.26,10.68-12.02,11.44c-6.63,0.73-12.78-2.15-15.75-6.46
				c-0.07-0.1-0.2-0.14-0.31-0.09c-0.11,0.05-0.17,0.18-0.14,0.29c3.02,11.7,16.8,16.88,26.89,9.51c-6.61,7.5-17.01,7.61-25.72-0.09
				c-0.09-0.08-0.23-0.08-0.32-0.01c-0.1,0.07-0.13,0.21-0.07,0.31c2.67,5.41,9.25,11.82,18.61,10.88
				c8.56-0.86,13.52-9.01,14.52-15.69c0.56,8.52-1.39,14.54-8.75,20.15c-0.1,0.07-0.13,0.21-0.07,0.32c0.05,0.11,0.18,0.16,0.3,0.13
				c6.79-1.96,12.23-5.43,15.05-12.54c0,6.16-2.14,12.37-7.53,16.51c-0.1,0.07-0.13,0.21-0.07,0.31c0.05,0.11,0.18,0.16,0.3,0.13
				c3.45-0.98,6.17-2.49,8.14-5.19c1.31,11.1,6.52,17.69,12.53,17.69c4.12,0,7.21-3.03,7.21-7.87
				C60.99-124.93,59.5-128.9,56.18-131.12z M155.41-222.74c-3.16-3.9-9.54-5.39-16.43-3.99c0.51-4.3-0.33-8.79-1.61-11.48
				c-0.05-0.11-0.17-0.17-0.29-0.14c-0.12,0.03-0.2,0.14-0.19,0.26c0.38,8.77-4.62,15.84-13.45,18.91
				c6.91-4.76,8.93-14.19,5.64-19.07c-0.07-0.1-0.2-0.14-0.31-0.09c-0.11,0.04-0.18,0.16-0.15,0.28c0.37,2.06-0.61,4.68-2.71,6.73
				c-2.91,2.81-6.85,3.45-8.81,1.43c-1.96-2.03-1.2-5.95,1.71-8.76c1.06-1.03,2.26-1.76,3.45-2.18c0.11-0.04,0.18-0.15,0.17-0.27
				c-0.01-0.12-0.11-0.21-0.23-0.22c-6.39-0.55-10.77,3.25-13.52,7.88c-2.79,4.71-7.57,8.41-13.21,7.67
				c-0.12-0.02-0.23,0.05-0.27,0.17c-0.04,0.11,0.01,0.24,0.11,0.3c2.8,1.68,5.87,2.38,9.86,1.05c-5.79,4.91-14.05,7.74-21.84,5.23
				c-0.11-0.04-0.23,0.01-0.29,0.1c-0.06,0.1-0.05,0.22,0.03,0.31c5.91,6.56,17.69,6.7,25.11,1.37c-3.04,4.32-7.07,7.48-14.29,8.48
				c-0.12,0.02-0.21,0.11-0.22,0.22c-0.01,0.12,0.05,0.23,0.16,0.27c8.29,3.08,16.6-0.04,23.45-8.21
				c-2.99,6.38-7.91,11.48-14.77,14.01c-0.12,0.04-0.18,0.16-0.16,0.28c0.02,0.12,0.12,0.21,0.24,0.21
				c3.94,0.08,7.49-0.86,12.27-3.57c-3.51,5.69-2.74,15.64,2.37,22.26c0.07,0.09,0.2,0.12,0.3,0.08c0.11-0.05,0.17-0.16,0.15-0.27
				c-1.18-7.2,1.3-15.33,5.61-19.64c-2.15,7.63-0.01,14.58,5.9,19.64c0.07,0.06,0.17,0.08,0.26,0.04c0.09-0.03,0.15-0.11,0.16-0.2
				c1.23-9.42,11.77-18.97,20.6-19.78c0.12-0.01,0.22-0.11,0.23-0.24c0.01-0.12-0.07-0.24-0.2-0.26c-4.28-0.97-8.69-0.49-12.39,1.03
				c2.66-2.93,5.94-5.11,9.55-6.25c0.12-0.04,0.19-0.15,0.18-0.27c-0.01-0.12-0.11-0.21-0.23-0.22c-4.51-0.31-8.92,1.01-12.73,3.54
				c4.36-6.62,10.98-11.54,19.43-13.51c0.12-0.03,0.2-0.14,0.2-0.26c-0.01-0.12-0.1-0.22-0.23-0.24
				c-11.92-1.3-21.75,3.32-28.22,11.92c1.65-4.9,6.37-9.76,12.95-12.62c5.85-2.54,11.85-2.95,16.42-1.51
				c0.11,0.03,0.22-0.01,0.29-0.1C155.48-222.52,155.48-222.65,155.41-222.74z M102.5-147.16c4.81-10.49,4.46-18.69,0.59-29.05
				c-0.04-0.12-0.17-0.18-0.29-0.16c-0.12,0.03-0.21,0.14-0.2,0.26c0.62,12.62-2.83,21.65-10.3,27.81
				c8.25-9.85,4.35-29.56-8.82-29.56c-9.59,0-17.52,7.98-19.46,17.52c-0.02,0.12,0.04,0.24,0.16,0.29c0.12,0.04,0.25,0,0.31-0.11
				c2.84-4.76,7.41-7.85,12.46-7.85c8.13,0,10.54,6.47,10.54,11c0,6.19-4.93,11.34-8.71,11.34c-3.44,0-5.04-2.82-5.04-4.93
				c0-3.9,3-7.17,6.38-8.16c0.12-0.04,0.2-0.15,0.18-0.28c-0.02-0.12-0.12-0.22-0.25-0.22c-4.11-0.03-7.58,1.86-9.63,5.57
				c-0.27-2.88-0.27-4.69,0.64-7.72c0.04-0.12-0.02-0.24-0.13-0.3c-0.11-0.06-0.24-0.03-0.32,0.07c-7.36,9.39-3.84,25.62,1.98,32.36
				c-5.53-3.98-10.42-12.63-10.34-24.39c0-0.12-0.08-0.23-0.21-0.25c-0.12-0.03-0.24,0.04-0.28,0.15
				c-4.11,10.25-1.93,29.25,9.28,39.85c-2.88,0.4-5.87,0.35-9.13-0.69c-0.12-0.04-0.24,0.01-0.3,0.12
				c-0.06,0.11-0.04,0.24,0.06,0.32c4.09,3.46,9.81,4.54,15.27,4.54c-4.7-5.5-3.14-16.55,4.36-16.55c5.35,0,7.78,8.3,3.65,12.78
				c-0.08,0.09-0.09,0.21-0.03,0.31c0.06,0.1,0.19,0.14,0.3,0.1c4.78-1.65,9.95-5.79,9.95-11.02c0-5.04-4.81-9.39-11.8-9.05
				c8.82-2.51,18.05,0.27,22.88,6.25c0.07,0.09,0.21,0.12,0.31,0.07c0.11-0.05,0.16-0.18,0.13-0.29
				c-2.79-10.72-11.97-15.2-23.44-13.71c9.28-3.76,23.25-0.48,29.42,7.31c0.07,0.09,0.2,0.12,0.31,0.07
				c0.11-0.05,0.16-0.17,0.14-0.28C111.76-140.26,108.26-145.21,102.5-147.16z"/>
			<path class="st2" d="M128.89-166.45c-0.02,0.12-0.12,0.21-0.25,0.21c-12.91,0.14-24.75,3.27-33.97,11.52
				c8.03-5.56,22.94-7.51,31.53-3.62c0.11,0.05,0.17,0.17,0.14,0.29c-0.03,0.12-0.13,0.2-0.25,0.2
				c-10.68-0.29-19.28,3.01-25.98,8.96c6.87,0.42,12.57,4.74,12.56,9.85c0,0.12-0.08,0.22-0.2,0.25c-0.12,0.02-0.23-0.04-0.28-0.14
				c-1.12-2.49-4.75-3.78-8.58-2.88c-4.18,0.98-7,4.19-6.3,7.17c0.47,2.01,2.44,3.4,4.95,3.79c0.13,0.02,0.22,0.13,0.22,0.26
				c0,0.13-0.1,0.23-0.23,0.25c-1.07,0.1-2.18,0.11-3.32,0c-6.49-0.62-11.51-4.59-11.95-9.18c-4.71,0.55-8.88,3.16-10.38,6.77
				c-0.04,0.11-0.16,0.17-0.28,0.15c-0.12-0.02-0.2-0.11-0.21-0.23c-0.38-4.75,1.26-7.84,4.97-10.85
				c-5.38,2.06-11.45,2.16-17.26-0.54c-0.11-0.05-0.16-0.17-0.14-0.28c0.02-0.12,0.12-0.2,0.24-0.2c4.88-0.19,8.42-1.76,11.73-5.07
				c-18.26,5.13-33.09-6.2-27.96-23.05c0.04-0.12,0.15-0.19,0.27-0.18c0.12,0.01,0.22,0.11,0.23,0.23
				c0.92,9.71,7.7,16.12,17.86,17.08c-5.39-2.06-11-6.97-11.56-15.53c-0.01-0.12,0.07-0.23,0.19-0.26c0.12-0.03,0.24,0.03,0.29,0.14
				c2.8,6.15,8.3,9.26,14.16,9.81c-6.33-2.58-10.4-8.6-11.57-16.42c-0.02-0.12,0.05-0.24,0.17-0.28c0.12-0.04,0.25,0.02,0.3,0.13
				c3.87,7.58,12.16,12.79,22.45,8.81c10.62-4.11,15.27-16.38,16.3-25.04c0.02-0.12,0.12-0.22,0.24-0.22
				c0.12-0.01,0.23,0.08,0.26,0.2c3.72,15.69-3.58,31.95-16.64,38.84c7.1-2,13.44-6.26,17.03-13.35c8.29-1.02,14-3.86,16.86-9.24
				c0.06-0.11,0.18-0.16,0.29-0.12c0.12,0.04,0.19,0.15,0.18,0.27c-0.18,2.11-0.94,6.33-4.07,8.27c6.96-0.01,12.51,0.89,17.8,3.01
				C128.84-166.69,128.91-166.57,128.89-166.45z M99.4-219.92c0.1,0.06,0.23,0.05,0.32-0.03c0.09-0.08,0.1-0.21,0.04-0.31
				c-1.62-2.8-0.14-6.81,3.05-6.81c5.72,0,8.47,10.77,7.6,20.59c-2.16-5.75-4.03-8.05-7.35-10.79c-0.09-0.08-0.23-0.08-0.32,0
				c-0.09,0.08-0.12,0.21-0.06,0.32c4.86,9.08,5.9,16.06,5.9,24.08c-1.46-5.96-3.2-9.32-8.13-14.38c-0.09-0.09-0.22-0.1-0.32-0.03
				c-0.1,0.07-0.14,0.2-0.09,0.31c5.3,11.59,4.89,24.45,0.95,34.26c-0.04,0.1-0.01,0.21,0.06,0.28c0.08,0.07,0.19,0.09,0.29,0.04
				c5.21-2.55,8.26-4.23,12.75-10.39c-1.36-7.4-0.23-11.05,3.17-17.19c-3.94,9.92-1.84,23.89,8.19,29.59
				c0.11,0.06,0.25,0.04,0.32-0.06c0.08-0.1,0.07-0.24-0.02-0.33c-3.78-3.96-6.53-10.63-4.16-17.93
				c-1.53,10.39,7.6,19.11,17.78,19.11c9.6,0,16.15-7.51,15.61-14.94c-0.54-7.37-5.44-10.97-9.67-12.5c-0.11-0.04-0.24,0-0.3,0.1
				c-0.06,0.1-0.05,0.23,0.03,0.31c5.61,5.69,6.38,16.49-3.58,19.76c5.86-5.06,3.69-16.83-5.69-17.72
				c-0.12-0.01-0.23,0.06-0.26,0.17c-0.04,0.11,0,0.23,0.1,0.29c2.01,1.28,3.68,3.77,3.68,6.57c0,4.67-3.42,6.51-5.68,6.51
				c-3.42,0-6.26-3.26-6.26-8.18c0-5.84,5.26-10.68,12.02-11.43c6.63-0.74,12.78,2.15,15.75,6.46c0.07,0.1,0.2,0.14,0.31,0.09
				c0.11-0.05,0.17-0.17,0.14-0.29c-3.02-11.7-16.8-16.88-26.89-9.51c6.61-7.5,17.01-7.61,25.72,0.09c0.09,0.08,0.22,0.09,0.32,0.01
				c0.1-0.07,0.13-0.21,0.07-0.31c-2.67-5.41-9.25-11.82-18.61-10.88c-8.56,0.86-13.52,9.02-14.52,15.69
				c-0.56-8.52,1.39-14.54,8.75-20.14c0.1-0.07,0.13-0.21,0.07-0.32s-0.18-0.16-0.3-0.13c-6.79,1.96-12.23,5.42-15.05,12.54
				c0-6.16,2.14-12.37,7.53-16.51c0.1-0.07,0.13-0.21,0.07-0.32c-0.05-0.11-0.18-0.16-0.29-0.13c-3.45,0.98-6.17,2.49-8.14,5.18
				c-1.31-11.1-6.52-17.69-12.53-17.69c-4.12,0-7.21,3.03-7.21,7.87C94.59-226.11,96.08-222.14,99.4-219.92z M0.17-128.3
				c3.16,3.9,9.54,5.39,16.43,3.99c-0.51,4.3,0.33,8.79,1.61,11.49c0.05,0.11,0.17,0.17,0.29,0.14c0.12-0.03,0.2-0.14,0.19-0.26
				c-0.38-8.77,4.62-15.84,13.45-18.91c-6.91,4.76-8.93,14.19-5.64,19.06c0.07,0.1,0.2,0.14,0.31,0.09
				c0.11-0.04,0.18-0.16,0.15-0.28c-0.37-2.06,0.61-4.68,2.71-6.72c2.91-2.81,6.85-3.45,8.81-1.43c1.96,2.03,1.2,5.95-1.71,8.76
				c-1.06,1.03-2.26,1.76-3.45,2.19c-0.11,0.04-0.18,0.15-0.17,0.27c0.01,0.12,0.11,0.21,0.23,0.22c6.39,0.55,10.77-3.25,13.52-7.88
				c2.8-4.71,7.57-8.41,13.21-7.67c0.12,0.02,0.23-0.05,0.27-0.17c0.04-0.11-0.01-0.24-0.11-0.3c-2.8-1.68-5.87-2.38-9.86-1.05
				c5.79-4.91,14.05-7.74,21.84-5.23c0.11,0.04,0.23-0.01,0.29-0.1c0.06-0.1,0.05-0.22-0.03-0.31c-5.91-6.56-17.69-6.7-25.11-1.37
				c3.04-4.32,7.07-7.49,14.29-8.48c0.12-0.02,0.21-0.11,0.22-0.22c0.01-0.12-0.05-0.22-0.16-0.27c-8.29-3.08-16.6,0.04-23.45,8.22
				c2.99-6.38,7.91-11.49,14.77-14.01c0.12-0.04,0.18-0.16,0.16-0.28c-0.02-0.12-0.12-0.21-0.24-0.21
				c-3.94-0.08-7.49,0.86-12.27,3.57c3.51-5.69,2.74-15.64-2.37-22.26c-0.07-0.09-0.2-0.12-0.3-0.08c-0.11,0.05-0.17,0.16-0.15,0.28
				c1.18,7.2-1.3,15.33-5.61,19.64c2.15-7.63,0.01-14.58-5.9-19.64c-0.07-0.06-0.17-0.08-0.26-0.04c-0.09,0.03-0.15,0.11-0.16,0.2
				c-1.23,9.42-11.77,18.97-20.6,19.78c-0.12,0.01-0.22,0.11-0.23,0.24c-0.01,0.12,0.07,0.24,0.2,0.26
				c4.28,0.97,8.69,0.49,12.39-1.03c-2.66,2.93-5.94,5.11-9.55,6.24c-0.12,0.04-0.19,0.15-0.18,0.27c0.01,0.12,0.11,0.22,0.23,0.22
				c4.51,0.31,8.92-1.01,12.73-3.54c-4.36,6.62-10.98,11.54-19.43,13.51c-0.12,0.03-0.2,0.14-0.2,0.26c0.01,0.12,0.1,0.22,0.23,0.24
				c11.92,1.3,21.75-3.32,28.22-11.92c-1.65,4.9-6.37,9.76-12.95,12.62c-5.85,2.54-11.85,2.95-16.42,1.51
				c-0.11-0.03-0.22,0.01-0.29,0.1C0.1-128.51,0.1-128.39,0.17-128.3z M53.08-203.87c-4.81,10.49-4.46,18.69-0.59,29.05
				c0.04,0.12,0.17,0.19,0.29,0.16c0.12-0.03,0.21-0.14,0.2-0.26c-0.62-12.62,2.83-21.65,10.3-27.81
				c-8.25,9.85-4.35,29.56,8.82,29.56c9.59,0,17.52-7.98,19.46-17.53c0.03-0.12-0.04-0.24-0.16-0.29c-0.12-0.04-0.25,0-0.31,0.11
				c-2.84,4.76-7.41,7.85-12.46,7.85c-8.13,0-10.54-6.47-10.54-11c0-6.19,4.93-11.34,8.71-11.34c3.44,0,5.04,2.82,5.04,4.93
				c0,3.9-3,7.17-6.38,8.16c-0.12,0.04-0.2,0.15-0.18,0.28c0.02,0.12,0.12,0.22,0.25,0.22c4.11,0.03,7.58-1.85,9.63-5.57
				c0.27,2.88,0.27,4.69-0.64,7.72c-0.04,0.12,0.02,0.24,0.12,0.3c0.11,0.05,0.24,0.03,0.32-0.07c7.36-9.39,3.84-25.62-1.98-32.36
				c5.53,3.98,10.42,12.63,10.34,24.39c0,0.12,0.08,0.23,0.21,0.25c0.12,0.02,0.24-0.04,0.28-0.15c4.11-10.25,1.93-29.25-9.28-39.85
				c2.88-0.4,5.87-0.35,9.12,0.69c0.12,0.04,0.24-0.01,0.3-0.12c0.06-0.11,0.04-0.24-0.06-0.32c-4.09-3.46-9.81-4.54-15.27-4.54
				c4.7,5.5,3.14,16.55-4.35,16.55c-5.35,0-7.78-8.3-3.65-12.78c0.08-0.09,0.09-0.21,0.03-0.31c-0.06-0.1-0.19-0.14-0.3-0.1
				c-4.78,1.66-9.95,5.79-9.95,11.02c0,5.04,4.81,9.39,11.8,9.05c-8.82,2.5-18.05-0.27-22.88-6.25c-0.07-0.09-0.21-0.12-0.31-0.07
				c-0.11,0.05-0.16,0.17-0.13,0.29c2.79,10.71,11.97,15.2,23.44,13.71c-9.28,3.76-23.25,0.48-29.42-7.31
				c-0.07-0.09-0.2-0.12-0.31-0.07c-0.11,0.05-0.16,0.17-0.14,0.28C43.83-210.77,47.32-205.83,53.08-203.87z"/>
		</g>
	</g>
</pattern>
<pattern  width="144.13" height="138.36" patternUnits="userSpaceOnUse" id="Alyssa" viewBox="99.96 -216.83 144.13 138.36" style="overflow:visible;">
	<g>
		<rect x="99.96" y="-216.83" class="st0" width="144.13" height="138.36"/>
		<g>
			<path class="st3" d="M311.04-58.31c-11.76-1.38-19.37,0.35-22.65,3.11c-3.02,2.54-4.96,5.41-2.25,11.93
				c2.94,7.09,1.53,14.73-5.54,15.91c-6.22,1.04-10.89-4.84-11.24-12.28c-0.24-5.18-1.9-8.3-5.53-7.61
				c-3.63,0.69-4.63,5.9-3.63,11.76c1.38,8.13,5.54,11.76,6.23,20.23c0.49,6.05-2.94,13.66-12.45,15.04
				c-9.3,1.35-15.91-4.32-16.6-10.55c-0.73-6.59,3.63-10.89,3.11-17.64c-0.52-6.75-4.01-10.17-5.88-17.29
				c-2.77-10.55,1.21-19.02,7.78-22.65c14.75-8.15,22.83,3.64,35.97,1.56c10.9-1.73,23.35-18.16,33.03-19.54
				c8.23-1.17,13.83,4.67,15.04,14.01C327.64-62.98,321.69-57.05,311.04-58.31z M268.84-57.79c0-2.29-1.86-4.15-4.15-4.15
				c-2.29,0-4.15,1.86-4.15,4.15s1.86,4.15,4.15,4.15C266.98-53.64,268.84-55.5,268.84-57.79z M318.3-73.18
				c0-0.96-0.78-1.73-1.73-1.73c-0.96,0-1.73,0.77-1.73,1.73s0.77,1.73,1.73,1.73C317.52-71.45,318.3-72.22,318.3-73.18z"/>
		</g>
		<g>
			<path class="st4" d="M148.8-77.49c0,7.17,4.59,13.81-1,16.33c-8.5,3.83-28-14.33-28-36.17c0-12,8.67-19,17.83-19
				c12.33,0,18,8.17,18,17.5C155.63-89.5,148.8-85.69,148.8-77.49z M143.39-82.86c0-1.15-0.93-2.08-2.07-2.08
				c-1.15,0-2.08,0.93-2.08,2.08c0,1.15,0.93,2.08,2.08,2.08C142.46-80.79,143.39-81.72,143.39-82.86z"/>
			<path class="st5" d="M223.49-54c-7.87,2.74-19.44-15.3-17.67-27.02c1.24-8.23,7.12-13.19,13.09-14.22
				c7.53-1.3,12.9,2.6,13.3,7.24c0.55,6.31-3.63,7.52-4.22,14.96C227.43-65.9,231.68-56.85,223.49-54z M219.71-81.51
				c0-1.43-1.16-2.59-2.59-2.59c-1.43,0-2.59,1.16-2.59,2.59c0,1.43,1.16,2.59,2.59,2.59C218.54-78.91,219.71-80.08,219.71-81.51z"
				/>
			<path class="st4" d="M119.35-76.47c0,1.43-1.16,2.59-2.59,2.59c-1.43,0-2.59-1.16-2.59-2.59s1.16-2.59,2.59-2.59
				C118.19-79.06,119.35-77.9,119.35-76.47z"/>
			<path class="st5" d="M184.57-84.19c0.74,8.1,12.67,7.02,17.9,14.21c10.52,14.47-1.22,46.37-21.63,46.37
				c-11.74,0-24.22-9.72-24.22-29.22c0-15.83,10.17-21.5,8.25-42.17c-1.01-10.83-12.5-20.34-12.5-34.75
				c0-5.92,3.59-13.45,11.55-13.45c7.05,0,10.82,5.95,10.82,12.9c0,6.8-5.38,15.74,1.38,19.05c5.24,2.57,13.21-4.77,19.5-6.75
				c5.19-1.64,12.39,0.22,14.75,8.5c2.53,8.88-3.25,14.75-11.59,16.69C192.47-91.32,183.98-90.63,184.57-84.19z M168.59-114.75
				c0-1.82-1.47-3.29-3.29-3.29c-1.81,0-3.29,1.47-3.29,3.29c0,1.81,1.47,3.29,3.29,3.29C167.12-111.46,168.59-112.93,168.59-114.75
				z M194.57-105.05c1.29,0,2.33-1.04,2.33-2.33c0-1.29-1.04-2.33-2.33-2.33c-1.29,0-2.33,1.04-2.33,2.33
				C192.24-106.1,193.29-105.05,194.57-105.05z M174.59-45.38c0-1.82-1.47-3.29-3.29-3.29c-1.81,0-3.29,1.47-3.29,3.29
				c0,1.81,1.47,3.29,3.29,3.29C173.12-42.1,174.59-43.57,174.59-45.38z"/>
			<path class="st3" d="M166.91-58.31c-11.76-1.38-19.37,0.35-22.65,3.11c-3.02,2.54-4.96,5.41-2.25,11.93
				c2.94,7.09,1.53,14.73-5.54,15.91c-6.22,1.04-10.89-4.84-11.24-12.28c-0.24-5.18-1.9-8.3-5.53-7.61
				c-3.63,0.69-4.63,5.9-3.63,11.76c1.38,8.13,5.54,11.76,6.23,20.23c0.49,6.05-2.94,13.66-12.45,15.04
				c-9.3,1.35-15.91-4.32-16.6-10.55c-0.73-6.59,3.63-10.89,3.11-17.64c-0.52-6.75-4.01-10.17-5.88-17.29
				c-2.77-10.55,1.21-19.02,7.78-22.65c14.75-8.15,22.83,3.64,35.97,1.56c10.9-1.73,23.35-18.16,33.03-19.54
				c8.23-1.17,13.83,4.67,15.04,14.01C183.51-62.98,177.56-57.05,166.91-58.31z M124.71-57.79c0-2.29-1.86-4.15-4.15-4.15
				c-2.29,0-4.15,1.86-4.15,4.15s1.86,4.15,4.15,4.15C122.85-53.64,124.71-55.5,124.71-57.79z M174.17-73.18
				c0-0.96-0.78-1.73-1.73-1.73c-0.96,0-1.73,0.77-1.73,1.73s0.77,1.73,1.73,1.73C173.4-71.45,174.17-72.22,174.17-73.18z"/>
		</g>
		<g>
			<path class="st5" d="M290.28-104.84c0,6.23-4.15,10.72-8.65,11.59c-4.5,0.87-8.32-1.28-12.97,1.21
				c-4.84,2.59-7.09,11.07-16.78,11.07c-7.96,0-15.22-7.96-15.22-18.85c0-20.23,13.14-29.23,25.59-29.23
				C278.87-129.05,290.28-116.43,290.28-104.84z M270.57-119.19c0-2.1-1.7-3.8-3.8-3.8c-2.1,0-3.8,1.7-3.8,3.8
				c0,2.1,1.7,3.8,3.8,3.8C268.87-115.39,270.57-117.09,270.57-119.19z"/>
			<path class="st3" d="M311.04-196.67c-11.76-1.38-19.37,0.35-22.65,3.11c-3.02,2.54-4.96,5.41-2.25,11.93
				c2.94,7.09,1.53,14.73-5.54,15.91c-6.22,1.04-10.89-4.84-11.24-12.28c-0.24-5.18-1.9-8.3-5.53-7.61
				c-3.63,0.69-4.63,5.9-3.63,11.76c1.38,8.13,5.54,11.76,6.23,20.23c0.49,6.05-2.94,13.66-12.45,15.04
				c-9.3,1.35-15.91-4.32-16.6-10.55c-0.73-6.59,3.63-10.89,3.11-17.64c-0.52-6.75-4.01-10.17-5.88-17.29
				c-2.77-10.55,1.21-19.02,7.78-22.65c14.75-8.15,22.83,3.64,35.97,1.56c10.9-1.73,23.35-18.16,33.03-19.54
				c8.23-1.17,13.83,4.67,15.04,14.01C327.64-201.34,321.69-195.42,311.04-196.67z M268.84-196.15c0-2.29-1.86-4.15-4.15-4.15
				c-2.29,0-4.15,1.86-4.15,4.15c0,2.29,1.86,4.15,4.15,4.15C266.98-192,268.84-193.86,268.84-196.15z M318.3-211.54
				c0-0.96-0.78-1.73-1.73-1.73c-0.96,0-1.73,0.77-1.73,1.73c0,0.96,0.77,1.73,1.73,1.73C317.52-209.81,318.3-210.59,318.3-211.54z"
				/>
		</g>
		<g>
			<path class="st5" d="M131.8-133.19c-13.96,1.99-21.17-13.33-17.67-20.33c3.67-7.33,12.12-4.17,19.5-4.17
				c9.67,0,16.37-7.57,20.42-2.25C158.3-154.36,149.04-135.65,131.8-133.19z M132.32-150.67c0-1.24-1.01-2.25-2.25-2.25
				c-1.24,0-2.25,1.01-2.25,2.25c0,1.24,1.01,2.25,2.25,2.25C131.31-148.42,132.32-149.43,132.32-150.67z"/>
			<path class="st4" d="M148.8-215.86c0,7.17,4.59,13.81-1,16.33c-8.5,3.83-28-14.33-28-36.17c0-12,8.67-19,17.83-19
				c12.33,0,18,8.17,18,17.5C155.63-227.86,148.8-224.05,148.8-215.86z M143.39-221.23c0-1.15-0.93-2.08-2.07-2.08
				c-1.15,0-2.08,0.93-2.08,2.08c0,1.15,0.93,2.08,2.08,2.08C142.46-219.15,143.39-220.08,143.39-221.23z"/>
			<path class="st5" d="M146.15-104.84c0,6.23-4.15,10.72-8.65,11.59c-4.5,0.87-8.32-1.28-12.97,1.21
				c-4.84,2.59-7.09,11.07-16.78,11.07c-7.96,0-15.22-7.96-15.22-18.85c0-20.23,13.14-29.23,25.59-29.23
				C134.74-129.05,146.15-116.43,146.15-104.84z M126.44-119.19c0-2.1-1.7-3.8-3.8-3.8c-2.1,0-3.8,1.7-3.8,3.8
				c0,2.1,1.7,3.8,3.8,3.8C124.74-115.39,126.44-117.09,126.44-119.19z"/>
			<path class="st3" d="M145.46-128.53c0,1.34-1.08,2.42-2.42,2.42c-1.34,0-2.42-1.08-2.42-2.42c0-1.34,1.08-2.42,2.42-2.42
				C144.38-130.95,145.46-129.87,145.46-128.53z"/>
			<path class="st5" d="M229.16-147.04c-3.19,4.68,1.04,10.72-1.38,15.22c-2.42,4.5-6.74,5.02-9.86,2.6
				c-3.63-2.83-3.41-6.64-8.3-8.82c-5.53-2.46-17.98,2.25-19.71-7.26c-0.88-4.81,2.38-8.57,7.26-9.68
				c6.05-1.38,9.35-0.18,15.39-3.11c6.05-2.94,11.24-8.99,22.14-12.11c10.41-2.97,16.07,1.56,16.6,5.88
				C252.34-155.86,234.17-154.38,229.16-147.04z M226.91-154.47c0-1.24-1.01-2.25-2.25-2.25c-1.24,0-2.25,1.01-2.25,2.25
				c0,1.24,1.01,2.25,2.25,2.25C225.91-152.23,226.91-153.23,226.91-154.47z"/>
			<path class="st4" d="M256.13-107.86c0,17.17-14.5,25.5-27,22.83c-10.26-2.19-12.83-17.33-16.67-26.17
				c-3.71-8.56-8.83-22.5-20.17-22.5c-11.2,0-12.83,14.5-23.67,14.5c-11,0-24.5-15.67-24.5-39.67c0-14.67,9.8-31.46,20.83-30.67
				c11.67,0.83,4.5,19.67,15.33,19.67c9.5,0,7.86-16.26,9.17-23.33c1.67-9,6.83-14.17,18.5-13.17c14.44,1.24,22.33,13.5,18.87,23.34
				c-4.03,11.45-23.87,17.32-21.54,30.49c1.35,7.59,13,12,26,16.17C245.82-131.7,256.13-125.02,256.13-107.86z M211.18-183.7
				c0,1.82,1.47,3.29,3.29,3.29c1.81,0,3.29-1.47,3.29-3.29s-1.47-3.29-3.29-3.29C212.65-186.99,211.18-185.52,211.18-183.7z
				 M164.48-158.8c0-0.96-0.77-1.73-1.73-1.73c-0.96,0-1.73,0.78-1.73,1.73c0,0.96,0.78,1.73,1.73,1.73
				C163.71-157.07,164.48-157.84,164.48-158.8z M181.95-148.08c0-2.1-1.7-3.8-3.8-3.8c-2.1,0-3.8,1.7-3.8,3.8
				c0,2.1,1.71,3.8,3.8,3.8C180.25-144.27,181.95-145.97,181.95-148.08z M201.84-163.64c0-0.86-0.7-1.56-1.56-1.56
				c-0.86,0-1.56,0.7-1.56,1.56c0,0.86,0.7,1.56,1.56,1.56C201.14-162.08,201.84-162.78,201.84-163.64z M231.48-108.94
				c0-1.75-1.42-3.17-3.17-3.17c-1.75,0-3.17,1.42-3.17,3.17c0,1.75,1.42,3.17,3.17,3.17C230.06-105.77,231.48-107.19,231.48-108.94
				z"/>
			<path class="st5" d="M223.49-192.36c-7.87,2.74-19.44-15.3-17.67-27.02c1.24-8.23,7.12-13.19,13.09-14.22
				c7.53-1.3,12.9,2.6,13.3,7.24c0.55,6.31-3.63,7.52-4.22,14.96C227.43-204.26,231.68-195.21,223.49-192.36z M219.71-219.87
				c0-1.43-1.16-2.59-2.59-2.59c-1.43,0-2.59,1.16-2.59,2.59c0,1.43,1.16,2.59,2.59,2.59C218.54-217.28,219.71-218.44,219.71-219.87
				z"/>
			<path class="st4" d="M119.35-214.83c0,1.43-1.16,2.59-2.59,2.59c-1.43,0-2.59-1.16-2.59-2.59c0-1.43,1.16-2.59,2.59-2.59
				C118.19-217.42,119.35-216.26,119.35-214.83z"/>
			<path class="st4" d="M253.35-128.09c0-8.41-5.08-15.23-11.34-15.23s-11.34,6.82-11.34,15.23c0,8.41,5.08,12.44,11.34,12.44
				S253.35-119.68,253.35-128.09z"/>
			<path class="st5" d="M184.57-222.55c0.74,8.1,12.67,7.02,17.9,14.21c10.52,14.47-1.22,46.37-21.63,46.37
				c-11.74,0-24.22-9.72-24.22-29.22c0-15.83,10.17-21.5,8.25-42.17c-1.01-10.83-12.5-20.34-12.5-34.75
				c0-5.92,3.59-13.45,11.55-13.45c7.05,0,10.82,5.95,10.82,12.9c0,6.8-5.38,15.74,1.38,19.05c5.24,2.57,13.21-4.77,19.5-6.75
				c5.19-1.64,12.39,0.22,14.75,8.5c2.53,8.88-3.25,14.75-11.59,16.69C192.47-229.69,183.98-228.99,184.57-222.55z M168.59-253.11
				c0-1.82-1.47-3.29-3.29-3.29c-1.81,0-3.29,1.47-3.29,3.29c0,1.81,1.47,3.29,3.29,3.29C167.12-249.82,168.59-251.3,168.59-253.11z
				 M194.57-243.41c1.29,0,2.33-1.04,2.33-2.33c0-1.29-1.04-2.33-2.33-2.33c-1.29,0-2.33,1.04-2.33,2.33
				C192.24-244.46,193.29-243.41,194.57-243.41z M174.59-183.74c0-1.82-1.47-3.29-3.29-3.29c-1.81,0-3.29,1.47-3.29,3.29
				c0,1.81,1.47,3.29,3.29,3.29C173.12-180.46,174.59-181.93,174.59-183.74z"/>
			<path class="st3" d="M166.91-196.67c-11.76-1.38-19.37,0.35-22.65,3.11c-3.02,2.54-4.96,5.41-2.25,11.93
				c2.94,7.09,1.53,14.73-5.54,15.91c-6.22,1.04-10.89-4.84-11.24-12.28c-0.24-5.18-1.9-8.3-5.53-7.61
				c-3.63,0.69-4.63,5.9-3.63,11.76c1.38,8.13,5.54,11.76,6.23,20.23c0.49,6.05-2.94,13.66-12.45,15.04
				c-9.3,1.35-15.91-4.32-16.6-10.55c-0.73-6.59,3.63-10.89,3.11-17.64c-0.52-6.75-4.01-10.17-5.88-17.29
				c-2.77-10.55,1.21-19.02,7.78-22.65c14.75-8.15,22.83,3.64,35.97,1.56c10.9-1.73,23.35-18.16,33.03-19.54
				c8.23-1.17,13.83,4.67,15.04,14.01C183.51-201.34,177.56-195.42,166.91-196.67z M124.71-196.15c0-2.29-1.86-4.15-4.15-4.15
				c-2.29,0-4.15,1.86-4.15,4.15c0,2.29,1.86,4.15,4.15,4.15C122.85-192,124.71-193.86,124.71-196.15z M174.17-211.54
				c0-0.96-0.78-1.73-1.73-1.73c-0.96,0-1.73,0.77-1.73,1.73c0,0.96,0.77,1.73,1.73,1.73C173.4-209.81,174.17-210.59,174.17-211.54z
				"/>
			<path class="st3" d="M230.2-174.36c0,0.76-0.62,1.38-1.38,1.38c-0.76,0-1.38-0.62-1.38-1.38c0-0.76,0.62-1.38,1.38-1.38
				C229.58-175.74,230.2-175.12,230.2-174.36z"/>
			<path class="st4" d="M235.73-212.75c0,1.24-1.01,2.25-2.25,2.25s-2.25-1.01-2.25-2.25c0-1.24,1.01-2.25,2.25-2.25
				S235.73-213.99,235.73-212.75z"/>
			<path class="st5" d="M152.21-189.58c0,0.67-0.54,1.21-1.21,1.21s-1.21-0.54-1.21-1.21s0.54-1.21,1.21-1.21
				S152.21-190.25,152.21-189.58z"/>
			<path class="st5" d="M148.57-121.1c0,0.76-0.62,1.38-1.38,1.38s-1.38-0.62-1.38-1.38c0-0.76,0.62-1.38,1.38-1.38
				S148.57-121.86,148.57-121.1z"/>
			<path class="st4" d="M233.14-143.06c0,0.67-0.54,1.21-1.21,1.21s-1.21-0.54-1.21-1.21c0-0.67,0.54-1.21,1.21-1.21
				S233.14-143.73,233.14-143.06z"/>
			<path class="st3" d="M195.85-125.13c0,1.88-1.53,3.41-3.41,3.41c-1.88,0-3.41-1.53-3.41-3.41c0-1.88,1.53-3.41,3.41-3.41
				C194.32-128.54,195.85-127.02,195.85-125.13z"/>
			<path class="st4" d="M200.83-85.28c0,1.16-0.94,2.1-2.1,2.1c-1.16,0-2.1-0.94-2.1-2.1s0.94-2.1,2.1-2.1
				C199.89-87.38,200.83-86.44,200.83-85.28z"/>
			<path class="st4" d="M162.03-91.58c0,0.87-0.7,1.57-1.57,1.57c-0.87,0-1.57-0.7-1.57-1.57c0-0.87,0.71-1.57,1.57-1.57
				C161.33-93.15,162.03-92.44,162.03-91.58z"/>
			<circle class="st3" cx="233.08" cy="-205.62" r="2.62"/>
			<circle class="st5" cx="223.12" cy="-170.75" r="2.36"/>
			<path class="st4" d="M127.69-164.2c0,1.45-1.17,2.62-2.62,2.62c-1.45,0-2.62-1.17-2.62-2.62c0-1.45,1.17-2.62,2.62-2.62
				C126.51-166.82,127.69-165.65,127.69-164.2z"/>
			<path class="st5" d="M122.7-171.28c0,0.72-0.59,1.31-1.31,1.31c-0.72,0-1.31-0.59-1.31-1.31s0.59-1.31,1.31-1.31
				C122.12-172.59,122.7-172,122.7-171.28z"/>
			<path class="st4" d="M186.94-119.37c0,0.87-0.71,1.57-1.57,1.57c-0.87,0-1.57-0.7-1.57-1.57c0-0.87,0.7-1.57,1.57-1.57
				C186.23-120.94,186.94-120.24,186.94-119.37z"/>
		</g>
		<g>
			<path class="st5" d="M85.03-147.04c-3.19,4.68,1.04,10.72-1.38,15.22c-2.42,4.5-6.74,5.02-9.86,2.6
				c-3.63-2.83-3.41-6.64-8.3-8.82c-5.53-2.46-17.98,2.25-19.71-7.26c-0.88-4.81,2.38-8.57,7.26-9.68
				c6.05-1.38,9.35-0.18,15.39-3.11c6.05-2.94,11.24-8.99,22.14-12.11c10.41-2.97,16.07,1.56,16.6,5.88
				C108.21-155.86,90.04-154.38,85.03-147.04z M82.78-154.47c0-1.24-1.01-2.25-2.25-2.25c-1.24,0-2.25,1.01-2.25,2.25
				c0,1.24,1.01,2.25,2.25,2.25C81.78-152.23,82.78-153.23,82.78-154.47z"/>
			<path class="st4" d="M112-107.86c0,17.17-14.5,25.5-27,22.83c-10.26-2.19-12.83-17.33-16.67-26.17
				c-3.71-8.56-8.83-22.5-20.17-22.5c-11.2,0-12.83,14.5-23.67,14.5c-11,0-24.5-15.67-24.5-39.67c0-14.67,9.8-31.46,20.83-30.67
				c11.67,0.83,4.5,19.67,15.33,19.67c9.5,0,7.86-16.26,9.17-23.33c1.67-9,6.83-14.17,18.5-13.17c14.44,1.24,22.33,13.5,18.87,23.34
				c-4.03,11.45-23.87,17.32-21.54,30.49c1.35,7.59,13,12,26,16.17C101.69-131.7,112-125.02,112-107.86z M67.05-183.7
				c0,1.82,1.47,3.29,3.29,3.29c1.81,0,3.29-1.47,3.29-3.29s-1.47-3.29-3.29-3.29C68.52-186.99,67.05-185.52,67.05-183.7z
				 M20.36-158.8c0-0.96-0.77-1.73-1.73-1.73c-0.96,0-1.73,0.78-1.73,1.73c0,0.96,0.78,1.73,1.73,1.73
				C19.58-157.07,20.36-157.84,20.36-158.8z M37.82-148.08c0-2.1-1.7-3.8-3.8-3.8c-2.1,0-3.8,1.7-3.8,3.8c0,2.1,1.71,3.8,3.8,3.8
				C36.12-144.27,37.82-145.97,37.82-148.08z M57.71-163.64c0-0.86-0.7-1.56-1.56-1.56c-0.86,0-1.56,0.7-1.56,1.56
				c0,0.86,0.7,1.56,1.56,1.56C57.01-162.08,57.71-162.78,57.71-163.64z M87.35-108.94c0-1.75-1.42-3.17-3.17-3.17
				c-1.75,0-3.17,1.42-3.17,3.17c0,1.75,1.42,3.17,3.17,3.17C85.93-105.77,87.35-107.19,87.35-108.94z"/>
			<path class="st4" d="M109.22-128.09c0-8.41-5.08-15.23-11.34-15.23c-6.26,0-11.34,6.82-11.34,15.23
				c0,8.41,5.08,12.44,11.34,12.44C104.14-115.65,109.22-119.68,109.22-128.09z"/>
		</g>
	</g>
</pattern>
<g>
	<ellipse class="st6" cx="662" cy="278" rx="136.5" ry="105.5"/>
	<path d="M662,173c74.99,0,136,47.1,136,105s-61.01,105-136,105s-136-47.1-136-105S587.01,173,662,173 M662,172
		c-75.66,0-137,47.46-137,106s61.34,106,137,106s137-47.46,137-106S737.66,172,662,172L662,172z"/>
</g>
<g>
	<ellipse class="st7" cx="491.5" cy="314.5" rx="32" ry="26"/>
	<path d="M491.5,289c17.37,0,31.5,11.44,31.5,25.5S508.87,340,491.5,340S460,328.56,460,314.5S474.13,289,491.5,289 M491.5,288
		c-17.95,0-32.5,11.86-32.5,26.5s14.55,26.5,32.5,26.5s32.5-11.86,32.5-26.5S509.45,288,491.5,288L491.5,288z"/>
</g>
<g>
	<ellipse class="st7" cx="629.5" cy="145.5" rx="32" ry="26"/>
	<path d="M629.5,120c17.37,0,31.5,11.44,31.5,25.5S646.87,171,629.5,171S598,159.56,598,145.5S612.13,120,629.5,120 M629.5,119
		c-17.95,0-32.5,11.86-32.5,26.5s14.55,26.5,32.5,26.5s32.5-11.86,32.5-26.5S647.45,119,629.5,119L629.5,119z"/>
</g>
<g>
	<ellipse class="st7" cx="828.5" cy="239.5" rx="32" ry="26"/>
	<path d="M828.5,214c17.37,0,31.5,11.44,31.5,25.5S845.87,265,828.5,265S797,253.56,797,239.5S811.13,214,828.5,214 M828.5,213
		c-17.95,0-32.5,11.86-32.5,26.5s14.55,26.5,32.5,26.5s32.5-11.86,32.5-26.5S846.45,213,828.5,213L828.5,213z"/>
</g>
<g>
	<ellipse class="st7" cx="674.5" cy="416.5" rx="32" ry="26"/>
	<path d="M674.5,391c17.37,0,31.5,11.44,31.5,25.5S691.87,442,674.5,442S643,430.56,643,416.5S657.13,391,674.5,391 M674.5,390
		c-17.95,0-32.5,11.86-32.5,26.5s14.55,26.5,32.5,26.5s32.5-11.86,32.5-26.5S692.45,390,674.5,390L674.5,390z"/>
</g>
<line class="st8" x1="512.5" y1="355.5" x2="618.5" y2="412.5"/>
<line class="st8" x1="742.5" y1="410.5" x2="828.5" y2="298.5"/>
<line class="st8" x1="682.5" y1="145.5" x2="795.5" y2="208.5"/>
<line class="st8" x1="481.5" y1="263.5" x2="582.5" y2="151.5"/>
</svg>
